<?xml version="1.0" standalone="no"?>
<!DOCTYPE svg PUBLIC "-//W3C//DTD SVG 20010904//EN"
 "http://www.w3.org/TR/2001/REC-SVG-20010904/DTD/svg10.dtd">
<svg version="1.0" xmlns="http://www.w3.org/2000/svg"
 width="225.000000pt" height="225.000000pt" viewBox="0 0 225.000000 225.000000"
 preserveAspectRatio="xMidYMid meet">

<g transform="translate(0.000000,225.000000) scale(0.100000,-0.100000)"
fill="#000000" stroke="none">
<path d="M1015 2129 c-413 -44 -764 -348 -870 -757 -57 -218 -28 -489 76 -696
280 -560 999 -735 1500 -365 74 54 189 172 236 240 91 133 159 320 171 476 25
304 -70 577 -272 791 -172 181 -386 286 -637 312 -56 5 -106 9 -113 9 -6 -1
-47 -5 -91 -10z m263 -289 c148 -79 225 -242 192 -405 -29 -143 -135 -293
-245 -345 -154 -72 -328 15 -425 213 -68 140 -73 262 -16 375 70 138 187 205
346 199 74 -3 93 -7 148 -37z m77 -865 c148 -38 291 -148 354 -272 17 -34 31
-67 31 -72 0 -18 -94 -113 -154 -155 -150 -107 -279 -149 -461 -149 -179 -1
-310 41 -461 149 -70 49 -154 138 -154 163 0 32 64 128 130 192 72 71 154 118
250 143 78 21 385 21 465 1z"/>
</g>
</svg>
