<?xml version="1.0" standalone="no"?>
<!DOCTYPE svg PUBLIC "-//W3C//DTD SVG 20010904//EN"
 "http://www.w3.org/TR/2001/REC-SVG-20010904/DTD/svg10.dtd">
<svg version="1.0" xmlns="http://www.w3.org/2000/svg"
 width="900.000000pt" height="450.000000pt" viewBox="0 0 900.000000 450.000000"
 preserveAspectRatio="xMidYMid meet">

<g transform="translate(0.000000,450.000000) scale(0.100000,-0.100000)"
fill="#000000" stroke="none">
<path d="M4546 4378 c3 -5 10 -6 15 -3 13 9 11 12 -6 12 -8 0 -12 -4 -9 -9z"/>
<path d="M4529 4343 c-13 -16 -12 -17 4 -4 16 13 21 21 13 21 -2 0 -10 -8 -17
-17z"/>
<path d="M4575 4340 c3 -5 11 -10 16 -10 6 0 7 5 4 10 -3 6 -11 10 -16 10 -6
0 -7 -4 -4 -10z"/>
<path d="M4550 4306 c7 -7 13 -7 20 0 6 6 3 10 -10 10 -13 0 -16 -4 -10 -10z"/>
<path d="M4385 4280 c-3 -5 3 -10 15 -10 12 0 18 5 15 10 -3 6 -10 10 -15 10
-5 0 -12 -4 -15 -10z"/>
<path d="M4544 4279 c23 -6 43 -6 49 0 5 5 -11 8 -40 9 l-48 0 39 -9z"/>
<path d="M4455 4130 l-80 -6 110 -4 c119 -5 146 -3 123 11 -14 9 -23 9 -153
-1z"/>
<path d="M4520 4092 c-30 -2 -59 -7 -64 -13 -6 -5 -25 -9 -43 -9 -35 0 -45
-15 -15 -23 9 -3 62 -4 116 -3 81 1 101 4 110 18 5 9 8 19 6 21 -10 9 -57 13
-110 9z"/>
<path d="M4355 4081 c-3 -6 10 -7 32 -4 50 8 55 13 10 13 -20 0 -38 -4 -42 -9z"/>
<path d="M5638 3955 c-4 -4 -3 -18 3 -32 11 -31 12 -110 0 -117 -4 -3 -7 -29
-6 -59 1 -43 -2 -53 -15 -53 -13 0 -16 10 -15 53 1 29 -2 53 -6 53 -5 0 -9 -6
-9 -12 0 -9 -4 -8 -10 2 -9 13 -11 13 -20 0 -7 -11 -10 -11 -10 -2 0 7 -5 10
-11 7 -7 -5 -5 -13 6 -25 9 -10 14 -23 11 -28 -7 -12 3 -42 14 -42 5 0 7 16 6
35 -2 19 0 32 4 30 4 -3 7 -19 6 -37 -2 -25 -6 -33 -20 -31 -12 1 -16 -4 -11
-15 5 -13 2 -12 -15 3 -11 10 -20 23 -20 29 0 6 4 4 10 -4 5 -8 12 -11 17 -7
4 5 1 12 -7 18 -13 8 -13 10 0 19 13 8 12 12 -7 29 -17 16 -22 17 -27 6 -3 -8
0 -14 6 -12 6 1 13 -4 16 -12 3 -8 0 -11 -7 -7 -7 5 -9 1 -4 -10 4 -12 3 -15
-6 -10 -17 11 13 -46 33 -63 9 -8 16 -19 16 -25 0 -6 -5 -3 -11 6 -7 13 -17
16 -38 12 -24 -5 -31 -2 -41 17 -10 22 -10 22 3 6 14 -17 15 -16 13 7 0 13 -3
23 -7 21 -3 -2 -4 10 -3 26 3 41 -6 69 -22 69 -20 0 -26 -37 -20 -121 7 -96 7
-352 0 -451 -6 -75 -5 -78 16 -78 16 0 21 4 16 16 -5 13 -4 14 7 6 11 -10 13
-3 11 37 -1 27 -5 54 -9 60 -3 6 -1 11 5 11 7 0 9 7 6 16 -3 8 -1 25 5 36 6
11 7 18 2 15 -5 -3 -9 14 -9 38 1 23 5 41 9 38 5 -3 4 4 -2 15 -13 24 -14 35
-3 28 4 -2 8 4 8 14 0 10 -3 17 -7 15 -3 -3 -6 9 -5 25 1 17 4 30 8 30 4 0 4
7 1 17 -4 11 -3 14 5 9 8 -5 10 -2 6 8 -3 9 -11 13 -18 10 -6 -3 -3 1 6 9 21
17 60 15 66 -3 3 -7 0 -10 -7 -6 -7 5 -9 1 -5 -9 5 -12 9 -13 21 -4 7 7 12 18
9 26 -3 8 -1 11 5 8 5 -4 7 -16 3 -28 -6 -20 -5 -20 10 -8 9 8 15 20 12 28 -4
8 -1 11 5 8 6 -4 8 -13 5 -21 -7 -17 3 -44 16 -44 5 0 7 9 3 19 -3 11 -2 22 2
24 5 3 8 -16 8 -41 l0 -47 -45 0 c-25 -1 -51 -4 -57 -8 -7 -5 -13 -4 -13 2 0
5 6 12 13 14 9 4 8 8 -3 16 -13 10 -13 12 0 21 13 8 12 13 -9 32 -23 23 -23
23 -12 1 14 -27 14 -36 0 -27 -8 5 -8 1 0 -14 6 -11 11 -23 11 -27 0 -3 -5 -3
-11 1 -8 5 -8 1 0 -14 6 -11 8 -27 5 -35 -3 -8 -1 -18 5 -22 7 -4 9 1 5 12 -5
14 -4 15 4 4 5 -7 20 -14 33 -15 19 -1 23 -6 21 -25 -2 -20 0 -22 13 -11 9 7
14 19 11 27 -3 8 -2 11 3 8 5 -3 8 -23 6 -45 -2 -26 2 -45 11 -54 12 -13 11
-15 -13 -12 -23 2 -28 6 -25 25 2 20 0 22 -13 11 -9 -7 -13 -21 -10 -31 3 -9
1 -20 -4 -24 -6 -3 -8 0 -5 8 3 8 -3 22 -12 32 -15 14 -15 18 -3 26 12 8 12
10 -1 19 -13 9 -13 11 0 19 8 6 11 14 6 18 -5 4 -11 2 -13 -5 -3 -6 -9 -9 -15
-6 -6 4 -6 -2 1 -14 15 -28 14 -32 -6 -26 -16 5 -16 4 -3 -6 11 -9 12 -13 3
-17 -7 -2 -13 -9 -13 -15 0 -6 6 -6 15 2 16 13 17 12 19 -31 1 -20 -2 -25 -13
-21 -14 5 -14 4 -1 -10 13 -14 17 -14 31 -2 15 13 16 11 13 -21 -2 -31 0 -34
12 -24 8 7 13 18 10 26 -3 8 -2 12 3 9 5 -3 7 -33 6 -66 -2 -48 0 -58 10 -50
9 8 15 7 18 -2 4 -10 8 -10 16 2 7 9 11 10 11 3 0 -6 -5 -15 -11 -19 -6 -3 -9
-19 -7 -35 2 -15 2 -28 -1 -27 -3 0 -14 0 -23 -1 -24 -1 -23 -21 0 -21 13 0
18 -8 17 -27 0 -23 4 -28 25 -28 19 0 26 6 29 25 3 22 16 39 31 40 3 0 5 -17
5 -38 0 -30 -4 -37 -20 -39 -11 -1 -59 -5 -107 -8 l-88 -7 0 -179 c0 -164 -11
-262 -30 -274 -4 -2 -5 99 -2 225 l5 230 -27 0 c-23 0 -26 -4 -26 -37 0 -21
-2 -76 -5 -123 -2 -47 -7 -128 -9 -180 -3 -52 -12 -114 -20 -138 l-15 -42 27
5 c16 3 21 2 12 -2 -52 -26 -122 -110 -102 -122 8 -5 10 -19 6 -39 -8 -39 -19
-42 -22 -5 -3 35 -8 39 -29 22 -14 -10 -13 -7 2 11 48 57 47 62 -4 16 -45 -41
-55 -47 -62 -33 -5 9 -78 76 -162 150 -223 197 -268 252 -297 368 l-11 44
-247 0 -248 0 -17 -70 c-9 -38 -30 -88 -46 -110 -27 -38 -287 -265 -303 -265
-5 0 -8 4 -8 8 0 5 -54 91 -120 191 -66 101 -127 196 -135 211 -14 27 -14 27
-154 35 -77 4 -194 4 -260 0 l-119 -7 -32 -62 c-18 -33 -69 -117 -115 -186
-108 -165 -159 -298 -175 -456 -5 -60 -17 -356 -26 -659 -8 -302 -17 -551 -20
-554 -8 -8 2 425 25 1063 l9 240 -49 44 c-26 24 -69 72 -95 107 l-47 64 -106
-6 c-58 -3 -108 -7 -110 -9 -2 -2 27 -5 65 -5 63 -1 66 -2 29 -10 -51 -10
-226 -10 -285 0 l-45 8 60 3 c58 3 57 3 -34 13 l-94 9 -41 -48 c-52 -62 -161
-174 -151 -155 13 24 -79 -45 -118 -88 -68 -75 -126 -229 -128 -340 -1 -68
-20 6 -23 90 -2 66 -6 82 -30 113 -15 20 -44 45 -64 55 -20 11 -74 57 -118
103 -106 108 -118 141 -119 325 0 73 -3 133 -7 133 -11 0 -10 44 1 56 4 5 19
39 31 77 18 50 21 70 12 79 -8 8 -13 4 -17 -18 -7 -28 -37 -136 -40 -142 -4
-5 -58 27 -66 40 -6 8 -9 1 -9 -20 0 -29 3 -32 20 -27 16 5 19 3 13 -11 -4
-12 -3 -15 5 -10 7 4 12 1 12 -8 0 -8 5 -16 12 -18 10 -4 10 -13 1 -41 -9 -31
-9 -37 3 -37 11 0 13 -8 9 -33 -9 -45 11 -178 37 -256 18 -53 29 -69 65 -94
49 -35 50 -49 1 -19 -18 11 -76 32 -128 47 -52 14 -105 33 -118 41 -15 10 -27
12 -35 6 -7 -6 -59 -24 -117 -42 -58 -18 -123 -41 -145 -52 -57 -27 -15 6 48
38 26 13 47 28 47 33 0 14 -28 21 -34 8 -4 -7 -4 -1 -1 13 3 14 13 57 21 95 8
39 14 100 12 138 l-3 67 30 5 c17 3 44 6 60 8 17 2 5 5 -26 6 -57 1 -57 1 -63
36 -4 19 -12 35 -17 35 -6 0 -7 -9 -3 -22 10 -32 6 -213 -7 -275 -5 -28 -22
-69 -37 -91 -26 -38 -152 -159 -202 -195 -25 -17 -24 -17 12 -3 21 8 38 13 38
10 0 -2 -12 -18 -27 -34 -18 -20 -30 -27 -38 -20 -7 6 -19 4 -33 -6 -32 -22
-27 -38 6 -17 27 17 27 17 12 -2 -7 -11 -19 -25 -26 -30 -7 -6 -15 -29 -18
-50 -6 -40 -5 -40 6 -8 6 17 17 34 24 37 10 4 9 -7 -5 -42 -10 -26 -22 -76
-26 -112 -13 -117 -43 -255 -68 -318 -14 -34 -48 -94 -76 -134 -58 -85 -97
-169 -112 -242 -12 -59 -31 -106 -41 -106 -5 0 -8 7 -8 15 0 8 4 15 9 15 5 0
11 7 15 15 3 8 4 15 2 15 -9 0 -46 -39 -46 -49 0 -7 -4 -9 -10 -6 -13 8 -13
-16 1 -70 6 -25 16 -42 21 -39 6 4 8 -2 3 -15 -5 -16 -3 -20 9 -15 9 3 16 2
16 -4 0 -6 -5 -12 -11 -14 -12 -4 59 -114 93 -143 14 -13 10 -4 -11 23 -18 24
-30 46 -26 50 3 4 12 -2 18 -13 6 -11 30 -40 54 -65 34 -36 43 -41 43 -25 0
11 -7 34 -16 50 -14 28 -14 29 2 13 9 -9 33 -49 53 -89 20 -40 41 -74 48 -76
13 -5 -38 100 -62 127 -30 33 -14 33 21 -1 50 -48 77 -95 71 -124 -2 -14 0
-25 5 -25 5 0 7 -4 3 -9 -9 -15 4 -19 106 -30 123 -14 729 -15 835 -2 72 9 88
8 135 -10 30 -11 73 -27 97 -35 23 -9 40 -20 37 -24 -11 -17 36 -31 142 -42
129 -14 757 -15 824 -1 42 9 48 8 76 -18 60 -53 244 -79 560 -79 243 0 397 13
484 40 l57 17 9 -31 c10 -39 68 -69 168 -90 290 -60 825 -38 975 39 18 9 36
29 42 46 8 22 15 28 27 24 129 -51 809 -61 993 -14 42 11 57 27 37 40 -12 8
-11 11 2 22 17 13 30 152 49 512 6 105 12 213 15 240 2 28 7 140 11 250 5 123
11 190 15 175 5 -14 7 20 4 80 -2 66 -1 92 4 70 8 -34 8 -34 11 15 1 28 1 55
0 60 -1 6 -4 30 -5 55 l-3 45 9 -40 c5 -29 7 -16 4 46 -4 91 -23 153 -62 205
-12 17 -20 33 -18 36 3 3 -1 8 -10 12 -10 4 -14 2 -9 -6 4 -6 -28 26 -71 71
-43 45 -83 80 -89 78 -5 -2 -14 -18 -18 -35 -14 -52 -28 -37 -23 24 5 64 -1
79 -53 136 -20 22 -37 45 -39 51 -35 147 -49 450 -48 1069 0 389 0 397 -20
402 -43 10 -150 17 -157 11z m-74 -481 c3 -8 2 -12 -4 -9 -6 3 -10 10 -10 16
0 14 7 11 14 -7z m30 0 c3 -8 2 -12 -4 -9 -6 3 -10 10 -10 16 0 14 7 11 14 -7z
m41 -13 c-6 -5 -25 10 -25 20 0 5 6 4 14 -3 8 -7 12 -15 11 -17z m23 -45 c-7
-8 -15 -12 -17 -11 -5 6 10 25 20 25 5 0 4 -6 -3 -14z m-2 -46 c0 -12 -4 -16
-9 -11 -5 5 -6 14 -3 20 10 15 12 14 12 -9z m-17 -80 c-10 -7 -10 -12 0 -23 9
-12 9 -16 -1 -20 -10 -3 -8 -10 6 -26 14 -15 16 -25 9 -32 -19 -19 -32 0 -28
41 2 25 -2 45 -10 54 -12 11 -10 14 12 14 16 0 21 -3 12 -8z m-161 -95 c-3 -3
-9 2 -12 12 -6 14 -5 15 5 6 7 -7 10 -15 7 -18z m230 -80 c-16 -35 -29 -31
-17 5 6 16 15 28 20 25 4 -3 3 -17 -3 -30z m-1208 -270 c41 0 107 2 145 5 l70
5 3 -31 c4 -45 -34 -59 -144 -51 -50 4 -84 2 -84 -3 0 -11 -43 -14 -52 -4 -4
3 -35 6 -71 7 -75 2 -107 22 -99 62 4 24 5 24 81 17 42 -4 110 -7 151 -7z
m-1134 -34 c-14 -5 -16 -10 -8 -15 7 -4 10 -12 7 -17 -4 -5 -2 -9 3 -9 5 0 9
-13 8 -30 -1 -16 -6 -30 -11 -30 -6 0 -27 -9 -48 -20 -46 -25 -60 -19 -46 18
18 51 33 73 46 68 7 -3 13 -1 13 4 0 6 -6 10 -14 10 -8 0 -16 7 -20 15 -4 12
4 15 42 14 32 0 41 -3 28 -8z m1119 -81 c-3 -5 -13 -10 -21 -10 -8 0 -14 5
-14 10 0 6 9 10 21 10 11 0 17 -4 14 -10z m-229 -90 c-36 -39 -66 -77 -66 -85
0 -8 -4 -15 -9 -15 -12 0 3 54 24 86 8 13 22 24 29 24 8 0 27 14 43 30 15 17
32 30 37 30 4 0 -21 -32 -58 -70z m454 15 c24 -24 42 -47 39 -50 -3 -2 -27 18
-54 45 -27 28 -45 50 -39 50 5 0 30 -20 54 -45z m-1357 21 c3 -8 -1 -13 -11
-12 -9 0 -16 -4 -15 -10 1 -7 -6 -10 -17 -7 -11 3 -20 7 -20 9 0 2 48 31 56
34 1 0 4 -6 7 -14z m1242 -14 c22 -11 53 -35 70 -54 l30 -33 -35 31 c-57 51
-97 67 -171 67 -111 0 -192 -53 -217 -143 -6 -20 -10 -26 -11 -15 -2 58 52
125 131 160 45 21 151 14 203 -13z m-100 -11 c15 -6 6 -10 -33 -15 -55 -7
-115 -48 -127 -87 -4 -11 -9 -18 -12 -16 -9 10 27 66 54 85 24 17 78 40 93 41
3 0 14 -4 25 -8z m40 -11 c3 -5 1 -10 -4 -10 -6 0 -11 5 -11 10 0 6 2 10 4 10
3 0 8 -4 11 -10z m-1225 -10 c0 -5 -4 -10 -10 -10 -5 0 -10 5 -10 10 0 6 5 10
10 10 6 0 10 -4 10 -10z m70 -13 c0 -13 5 -28 12 -35 16 -16 -11 -16 -49 0
-39 17 -39 16 -17 37 27 28 54 27 54 -2z m1245 -29 c19 -22 19 -22 -10 2 -48
40 -51 43 -30 32 11 -6 29 -21 40 -34z m-1330 12 c3 -5 -1 -10 -9 -10 -8 0
-18 5 -21 10 -3 6 1 10 9 10 8 0 18 -4 21 -10z m1255 -9 c0 -3 -5 -13 -11 -21
-9 -13 -10 -12 -5 3 3 11 2 16 -4 12 -6 -3 -15 -3 -21 1 -8 4 -7 9 2 14 13 9
39 3 39 -9z m-1225 -21 c17 -7 14 -9 -13 -9 -20 -1 -31 3 -27 9 7 12 13 12 40
0z m1175 1 c0 -5 -7 -11 -15 -15 -8 -3 -15 -10 -15 -16 0 -5 7 -10 15 -10 8 0
15 -5 15 -12 0 -6 3 -9 6 -5 7 6 64 -19 64 -29 0 -3 -10 -2 -22 2 -12 3 -48 6
-80 5 -33 -1 -58 3 -58 9 0 5 7 10 15 10 8 0 15 5 15 10 0 6 -5 10 -11 10 -5
0 -7 5 -4 10 4 6 11 8 16 5 5 -4 9 -1 9 4 0 6 -10 12 -22 12 -19 1 -17 3 7 9
43 11 65 11 65 1z m-97 -127 c15 -3 27 -11 27 -16 0 -16 -82 35 -99 62 -12 20
-9 18 15 -7 17 -17 43 -35 57 -39z m-50 -26 c57 -30 233 -33 287 -5 26 13 30
14 15 2 -56 -44 -209 -52 -293 -15 -49 21 -92 60 -92 83 0 5 9 -2 21 -17 11
-15 40 -36 62 -48z m1354 43 c15 -10 12 -11 -17 -5 -19 4 -59 6 -90 5 -41 0
-51 2 -40 10 18 12 121 5 147 -10z m-1197 -43 c0 -4 -4 -8 -9 -8 -6 0 -12 4
-15 8 -3 5 1 9 9 9 8 0 15 -4 15 -9z m-2360 -28 c0 -5 -5 -10 -11 -10 -5 0 -7
5 -4 10 3 6 8 10 11 10 2 0 4 -4 4 -10z m50 -6 c0 -8 -5 -12 -10 -9 -6 4 -8
11 -5 16 9 14 15 11 15 -7z m147 -1 c2 -6 -22 -11 -57 -12 -61 -2 -84 4 -76
18 7 11 130 5 133 -6z m113 7 c0 -5 -5 -10 -11 -10 -5 0 -7 5 -4 10 3 6 8 10
11 10 2 0 4 -4 4 -10z m-80 -10 c0 -5 -2 -10 -4 -10 -3 0 -8 5 -11 10 -3 6 -1
10 4 10 6 0 11 -4 11 -10z m3300 0 c0 -19 -5 -24 -23 -25 -10 -1 -28 -12 -40
-24 -21 -22 -21 -22 -2 -20 29 4 85 -11 85 -22 0 -6 -9 -7 -22 -3 -30 9 -81
10 -95 1 -6 -4 -14 -3 -18 3 -3 5 1 10 11 10 13 0 14 3 4 15 -10 12 -10 15 0
15 7 0 10 6 7 14 -4 10 5 16 29 20 19 4 34 11 34 16 0 6 7 10 15 10 8 0 15 -4
15 -10z m-3535 -45 c90 -19 215 -19 306 0 98 21 99 12 2 -11 -103 -24 -236
-22 -328 4 -84 24 -76 27 20 7z m973 -38 c-45 -27 -70 -60 -62 -81 7 -18 44
-43 92 -62 32 -12 33 -14 7 -8 -44 8 -88 36 -105 66 -13 24 -13 29 5 49 22 24
75 59 90 59 6 0 -7 -10 -27 -23z m1355 16 c-13 -2 -33 -2 -45 0 -13 2 -3 4 22
4 25 0 35 -2 23 -4z m-2080 -35 c-5 -10 -162 -9 -185 0 -10 4 29 7 86 7 57 0
102 -3 99 -7z m796 -34 c17 -37 8 -39 -13 -4 -9 17 -13 30 -8 30 5 0 14 -12
21 -26z m117 -5 c19 -22 19 -22 -3 -8 -13 8 -23 17 -23 21 0 12 6 9 26 -13z
m-432 -47 c10 -36 16 -96 16 -157 0 -90 -2 -100 -23 -119 -22 -20 -24 -32 -30
-166 -4 -80 -7 -226 -7 -325 0 -99 -5 -264 -11 -368 -6 -103 -8 -199 -5 -212
4 -15 16 -26 34 -30 25 -5 28 -10 24 -36 -5 -33 -33 -53 -61 -44 -40 12 -44
51 -37 318 10 354 34 921 46 1054 15 163 26 182 54 85z m2694 38 c-7 -11 -17
-20 -22 -20 -5 0 -1 9 9 20 10 11 20 20 22 20 2 0 -2 -9 -9 -20z m40 0 c-7
-11 -16 -20 -20 -20 -5 0 -3 9 4 20 7 11 16 20 20 20 5 0 3 -9 -4 -20z m45 -1
c-4 -16 -8 -17 -14 -7 -7 10 -9 10 -9 1 0 -7 -5 -13 -12 -13 -6 0 -3 9 7 20
23 26 35 25 28 -1z m43 6 c-3 -23 -12 -26 -13 -5 -1 11 2 20 7 20 4 0 7 -7 6
-15z m-2736 -16 c0 -26 16 -57 49 -93 23 -25 23 -27 5 -18 -36 19 -74 71 -74
103 0 16 5 29 10 29 6 0 10 -9 10 -21z m-1794 -37 c-3 -2 -51 -4 -107 -3 -75
2 -104 -1 -110 -11 -7 -10 -9 -9 -9 4 0 13 12 19 50 24 28 4 53 10 55 14 3 4
32 1 65 -7 34 -9 58 -18 56 -21z m82 12 c25 -6 73 -26 148 -60 17 -8 50 -35
75 -60 27 -29 35 -42 22 -35 -26 13 -30 3 -13 -30 6 -10 9 -19 6 -19 -2 0 -18
25 -35 55 -45 79 -146 138 -184 106 -9 -7 -27 -8 -58 -1 l-44 9 48 -3 c33 -3
47 0 47 9 0 7 -6 13 -12 12 -41 -1 -58 5 -58 19 0 11 5 14 16 10 9 -3 28 -9
42 -12z m-333 -4 c-3 -5 -13 -10 -21 -10 -8 0 -14 5 -14 10 0 6 9 10 21 10 11
0 17 -4 14 -10z m4840 1 c-11 -19 -115 -33 -163 -23 l-47 10 75 2 c61 2 112 9
138 19 2 0 1 -3 -3 -8z m-4890 -10 c-12 -10 -65 -24 -65 -16 0 7 40 24 60 24
8 1 10 -2 5 -8z m895 5 c0 -2 -8 -10 -17 -17 -16 -13 -17 -12 -4 4 13 16 21
21 21 13z m-679 -30 c-1 -5 -17 -10 -36 -11 -37 -2 -36 9 0 18 26 6 37 4 36
-7z m66 -2 c-3 -3 -12 -4 -19 -1 -8 3 -5 6 6 6 11 1 17 -2 13 -5z m-407 -26
c-84 -58 -138 -210 -160 -448 -6 -69 -15 -143 -20 -164 -5 -22 -7 -54 -5 -70
4 -27 4 -28 -3 -6 l-8 25 -7 -28 c-14 -53 -57 -132 -87 -162 -40 -38 -115
-188 -130 -259 -12 -57 -1 -128 21 -142 17 -10 23 4 8 23 -13 16 -12 17 3 5
16 -12 20 -7 48 49 34 71 35 73 18 63 -8 -4 -10 -3 -5 2 5 5 14 9 20 9 17 0
153 225 186 309 17 41 37 116 46 167 19 108 30 132 20 44 -7 -68 -20 -129 -35
-171 -9 -27 -9 -27 5 -10 16 21 51 122 61 179 3 20 10 37 14 37 10 0 19 -49
14 -80 -38 -242 -35 -234 -101 -316 -19 -23 -54 -82 -79 -130 -57 -110 -79
-141 -104 -149 -13 -4 -20 -15 -20 -30 0 -13 -4 -27 -10 -30 -18 -11 20 -53
62 -70 31 -12 43 -13 48 -4 6 8 31 10 91 4 46 -4 111 -9 144 -11 198 -12 383
-25 405 -30 20 -5 22 -7 9 -14 -24 -14 -113 -19 -339 -20 -113 -1 -200 -3
-195 -5 31 -12 271 -37 402 -42 l151 -6 -9 -24 c-12 -32 -12 -31 14 -35 12 -2
-12 -10 -54 -18 -56 -10 -76 -17 -72 -27 3 -8 -2 -13 -15 -13 -11 0 -22 6 -24
12 -3 8 -46 17 -111 25 -59 7 -155 19 -214 26 -94 11 -108 15 -112 32 -2 11
-8 23 -15 27 -18 12 -54 9 -59 -4 -2 -7 -3 -5 -2 4 4 26 -21 55 -73 85 -67 38
-133 93 -126 105 3 5 -3 19 -15 31 -11 12 -20 31 -21 42 0 11 -3 39 -6 63 -4
25 -2 42 4 42 5 0 12 17 16 38 9 54 56 147 116 227 91 121 109 174 136 385 28
224 50 321 81 368 13 19 22 40 20 47 -5 11 12 25 63 52 40 21 46 15 10 -9z
m948 -55 c-37 -76 -39 -83 -53 -259 -22 -267 -57 -382 -171 -574 -81 -135 -98
-195 -91 -314 6 -118 33 -192 86 -234 32 -26 38 -28 34 -12 -4 14 0 20 11 20
22 0 75 -76 69 -98 -3 -13 8 -29 32 -50 47 -42 23 -41 -40 1 -28 19 -55 32
-61 30 -22 -7 -101 76 -132 139 -86 177 -63 346 73 523 94 124 154 321 170
565 7 101 25 188 53 248 15 34 50 92 56 92 1 0 -15 -35 -36 -77z m-398 57 c0
-5 -2 -10 -4 -10 -3 0 -8 5 -11 10 -3 6 -1 10 4 10 6 0 11 -4 11 -10z m1113
-43 c21 -15 37 -33 37 -39 0 -5 -16 4 -35 21 -43 37 -69 45 -141 39 -126 -11
-166 -115 -64 -168 19 -11 31 -19 27 -20 -17 0 -67 31 -81 52 -32 46 -13 99
49 132 21 12 50 15 101 14 60 -3 77 -8 107 -31z m-5 -29 c22 -19 14 -66 -14
-85 -25 -16 -28 -16 -55 0 -16 9 -29 12 -29 7 0 -6 -5 -10 -12 -10 -9 0 -9 3
0 12 7 7 12 24 12 39 0 49 56 70 98 37z m-178 -5 c10 -17 10 -17 20 0 6 9 16
17 21 17 6 0 3 -10 -5 -22 -14 -20 -14 -24 0 -46 20 -31 8 -44 -14 -14 -17 22
-17 22 -30 2 -7 -11 -17 -20 -24 -20 -6 0 -1 11 12 25 22 23 22 26 7 43 -10
10 -17 22 -17 25 0 14 19 7 30 -10z m1109 1 c8 -7 -84 -2 -114 6 -18 5 -2 6
40 3 39 -3 72 -7 74 -9z m1200 -35 c23 -22 45 -68 36 -77 -7 -8 -122 -8 -130
0 -3 3 1 23 10 44 24 59 47 67 84 33z m-2079 -9 c0 -28 -50 -78 -85 -85 -29
-6 -29 -5 5 10 39 18 69 51 70 78 0 9 2 17 5 17 3 0 5 -9 5 -20z m-895 -61 c9
-17 14 -33 11 -36 -3 -3 -10 7 -16 22 -6 15 -13 32 -16 36 -3 5 -3 9 0 9 3 0
13 -14 21 -31z m2925 -24 c250 0 504 2 565 5 l110 5 12 -26 c10 -21 8 -120
-12 -529 -14 -277 -30 -519 -35 -536 -17 -51 -83 -64 -413 -85 -261 -17 -723
7 -805 41 -12 5 -27 22 -33 37 -6 16 -22 259 -35 542 -22 466 -23 516 -9 537
15 23 18 24 108 16 50 -4 297 -7 547 -7z m-2167 -12 c-13 -2 -35 -2 -50 0 -16
2 -5 4 22 4 28 0 40 -2 28 -4z m583 -22 c-3 -5 -15 -11 -26 -14 -17 -4 -19 -3
-9 9 12 15 44 20 35 5z m8 -36 c-5 -13 37 -15 346 -15 231 0 349 -3 345 -10
-4 -6 -87 -10 -216 -10 -120 0 -209 -4 -209 -9 0 -5 71 -10 163 -10 104 -1
178 -6 207 -15 l45 -14 -35 -10 c-19 -6 -27 -11 -17 -11 26 -1 21 -28 -7 -35
-20 -5 -24 -12 -22 -34 2 -15 10 -28 19 -30 19 -4 30 -29 17 -37 -13 -8 -13
-52 0 -60 14 -9 12 -21 -6 -39 -10 -10 -11 -16 -4 -16 7 0 10 -7 6 -15 -3 -10
1 -15 12 -16 11 -1 8 -3 -7 -8 -41 -11 -49 -36 -21 -66 26 -28 21 -47 -6 -21
-12 12 -20 14 -27 7 -19 -19 -47 -13 -47 9 0 15 7 20 25 20 28 0 33 21 10 40
-34 28 -78 -29 -57 -75 16 -34 39 -41 62 -20 17 15 20 16 20 3 0 -22 37 -29
55 -11 9 8 15 10 15 3 0 -6 -15 -17 -32 -25 -18 -8 -28 -14 -22 -15 13 0 16
-50 3 -50 -5 0 -9 6 -9 13 0 9 -2 9 -9 -1 -7 -11 -9 -11 -14 2 -4 9 -11 16
-17 16 -6 0 -4 -7 4 -16 9 -8 16 -17 16 -19 0 -2 -7 -11 -16 -19 -8 -9 -11
-16 -5 -16 6 0 15 10 22 21 8 17 13 19 19 8 7 -10 12 -10 27 2 17 13 17 13 0
-13 -10 -16 -13 -28 -7 -28 12 0 13 -10 1 -28 -10 -16 -60 -23 -82 -11 -12 6
-22 3 -34 -11 -16 -18 -16 -18 10 -16 18 3 25 -1 21 -10 -3 -9 0 -11 12 -7 9
4 19 9 22 12 3 4 21 4 40 0 32 -6 30 -7 -15 -13 -5 -1 -23 -14 -39 -29 -16
-15 -36 -25 -44 -22 -8 3 -12 0 -10 -7 6 -18 31 -17 45 2 7 8 13 12 13 8 0
-18 3 -24 21 -50 10 -14 19 -32 18 -40 0 -11 -2 -11 -6 1 -4 11 -7 11 -13 0
-5 -7 -28 -12 -54 -12 -32 0 -46 -4 -46 -14 0 -9 15 -13 50 -13 28 0 50 -4 50
-10 0 -5 8 -10 17 -10 11 0 13 -3 7 -9 -10 -10 -134 -19 -289 -22 -176 -2 -63
-17 145 -19 107 0 213 -5 235 -9 38 -7 35 -8 -40 -16 -86 -8 -621 0 -669 11
-26 6 -29 5 -23 -15 4 -17 2 -21 -11 -19 -20 4 -21 65 -9 598 7 310 13 413 24
433 8 14 32 7 27 -8z m-504 -70 c-7 -8 -25 -14 -41 -13 -30 2 -27 13 6 21 41
10 48 8 35 -8z m3355 5 c-3 -5 -10 -10 -16 -10 -5 0 -9 5 -9 10 0 6 7 10 16
10 8 0 12 -4 9 -10z m-3955 -9 c0 -6 -4 -13 -10 -16 -5 -3 -10 1 -10 9 0 9 5
16 10 16 6 0 10 -4 10 -9z m3914 0 c3 -5 -3 -11 -15 -14 -16 -4 -18 -3 -8 9
13 16 16 17 23 5z m-3280 -30 c7 -10 -69 -31 -114 -31 -20 0 -30 -5 -28 -13 2
-6 -8 -23 -21 -36 -18 -18 -25 -20 -32 -10 -6 10 -10 6 -18 -13 -7 -20 -15
-25 -30 -21 -12 3 -21 7 -21 8 0 5 53 37 64 39 6 1 20 8 31 15 18 11 16 12
-15 6 -96 -17 -103 -18 -97 -8 4 6 26 14 51 17 24 4 52 13 62 21 11 8 43 14
76 15 31 0 60 5 63 10 8 12 22 13 29 1z m3366 -16 c-7 -9 -15 -13 -17 -11 -7
7 7 26 19 26 6 0 6 -6 -2 -15z m-39 -8 c-8 -10 -7 -17 1 -25 9 -9 8 -12 -5
-12 -9 0 -16 6 -14 13 1 8 -9 11 -32 10 -34 -1 -32 11 4 20 42 10 58 8 46 -6z
m-3987 -24 c-5 -19 -9 -20 -25 -10 -25 16 -24 30 1 22 13 -4 20 -2 20 6 0 7 2
10 5 8 2 -3 2 -15 -1 -26z m626 7 c0 -5 -4 -10 -10 -10 -5 0 -10 5 -10 10 0 6
5 10 10 10 6 0 10 -4 10 -10z m3206 -8 c-6 -10 -115 -36 -122 -29 -3 3 23 12
58 20 35 8 64 15 66 16 2 0 1 -3 -2 -7z m-3777 -43 c7 -16 11 -33 8 -36 -10
-9 -27 7 -27 26 0 9 -5 22 -12 29 -9 9 -9 12 3 12 8 0 20 -14 28 -31z m3808
23 c9 -6 3 -17 -22 -42 -19 -18 -32 -38 -28 -43 3 -5 -8 1 -25 13 -18 13 -31
24 -29 25 1 1 18 12 37 24 l35 23 -29 -25 c-38 -33 -18 -42 23 -10 25 20 29
28 19 34 -7 5 -8 9 -3 9 6 0 16 -4 22 -8z m-3892 -22 c3 -5 2 -10 -4 -10 -5 0
-13 5 -16 10 -3 6 -2 10 4 10 5 0 13 -4 16 -10z m45 -15 c0 -8 -4 -15 -9 -15
-5 0 -11 7 -15 15 -3 9 0 15 9 15 8 0 15 -7 15 -15z m-48 -37 c-7 -7 -12 -8
-12 -2 0 6 3 14 7 17 3 4 9 5 12 2 2 -3 -1 -11 -7 -17z m-1215 -10 c-3 -8 -6
-5 -6 6 -1 11 2 17 5 13 3 -3 4 -12 1 -19z m1273 1 c0 -5 -4 -9 -10 -9 -5 0
-10 7 -10 16 0 8 5 12 10 9 6 -3 10 -10 10 -16z m505 -3 c13 -14 34 -27 45
-31 36 -11 21 -20 -35 -21 -30 -1 -55 3 -55 8 0 5 6 8 13 7 6 -1 20 -1 31 0
15 1 16 4 7 15 -7 8 -21 12 -32 9 -23 -6 -71 16 -63 29 11 17 65 8 89 -16z
m3277 -25 l23 -26 -30 25 -29 25 16 -25 c8 -14 29 -27 47 -31 43 -9 51 -19 15
-20 -25 -1 -24 -2 11 -10 56 -11 87 -11 80 1 -3 6 -17 10 -30 10 -18 0 -23 4
-19 15 4 8 2 15 -3 15 -5 0 -18 7 -29 15 -10 9 8 2 40 -15 32 -16 70 -30 83
-30 33 0 63 -17 63 -37 0 -16 -5 -16 -110 2 -52 9 -140 7 -175 -5 -28 -9 -40
-9 -48 0 -9 9 -7 15 7 26 23 16 36 18 36 5 0 -5 -8 -12 -17 -14 -10 -3 2 -3
27 0 50 6 59 11 45 21 -6 4 -27 26 -48 48 l-38 41 30 -5 c16 -2 40 -16 53 -31z
m-3872 19 c0 -5 -2 -10 -4 -10 -3 0 -8 5 -11 10 -3 6 -1 10 4 10 6 0 11 -4 11
-10z m58 -19 c3 -8 -1 -12 -9 -9 -7 2 -15 10 -17 17 -3 8 1 12 9 9 7 -2 15
-10 17 -17z m-1252 -23 c-4 -18 -9 -41 -11 -50 -2 -9 -9 -27 -15 -39 -7 -12
-13 -32 -15 -45 -1 -12 -16 -37 -34 -54 -17 -18 -41 -49 -51 -70 -11 -21 -25
-42 -31 -46 -14 -8 0 19 53 100 22 33 44 60 49 58 6 -1 9 3 7 10 -3 13 44 168
51 168 2 0 0 -15 -3 -32z m502 -60 l-1 -73 -6 60 c-6 56 -4 85 5 85 2 0 3 -33
2 -72z m1220 52 c4 -12 2 -13 -9 -2 -18 16 -29 15 -29 -3 0 -17 -9 -19 -29 -6
-11 7 -10 11 5 20 25 14 56 10 62 -9z m178 5 c16 -12 16 -14 3 -15 -9 0 -22 7
-29 15 -16 19 0 19 26 0z m-609 -20 c35 -10 73 -62 73 -100 0 -19 -4 -37 -10
-40 -6 -4 -10 10 -10 35 0 45 -34 90 -68 90 -11 0 -26 7 -33 16 -15 18 -18 18
48 -1z m-24 -57 c4 -12 4 -24 1 -27 -6 -7 -24 20 -24 37 0 21 17 13 23 -10z
m-59 -40 c4 -16 16 -30 33 -37 l28 -11 -27 3 c-25 4 -26 2 -22 -30 4 -34 -16
-80 -29 -66 -4 3 -2 13 5 20 9 11 9 17 -3 24 -9 6 -10 12 -4 17 14 9 17 50 4
57 -11 7 -12 48 -2 59 4 4 8 4 9 -1 1 -4 5 -20 8 -35z m719 12 c50 -15 44 -22
-8 -10 -61 14 -203 12 -265 -5 -30 -8 -81 -28 -112 -44 -32 -16 -58 -28 -58
-26 0 12 130 78 178 90 64 16 203 13 265 -5z m-778 -27 c-9 -36 -12 -38 -29
-24 -8 7 -20 10 -26 6 -15 -9 -3 -55 18 -71 9 -7 14 -15 10 -19 -12 -13 -55
29 -55 54 0 29 25 61 43 54 8 -3 14 2 14 11 0 9 7 16 16 16 13 0 15 -6 9 -27z
m1805 17 c0 -5 -7 -10 -15 -10 -8 0 -15 5 -15 10 0 6 7 10 15 10 8 0 15 -4 15
-10z m117 -34 c13 -11 23 -24 23 -29 0 -5 -14 5 -32 22 -17 17 -35 31 -40 31
-4 0 -8 5 -8 11 0 12 7 7 57 -35z m1959 -55 c1 -33 -2 -61 -7 -61 -5 0 -9 25
-9 55 0 40 -4 57 -15 61 -28 11 -45 -16 -45 -72 0 -40 -4 -54 -14 -54 -11 0
-15 17 -18 65 -1 36 -1 66 2 66 3 1 15 3 28 4 12 1 25 5 28 8 3 3 16 2 27 -2
19 -7 22 -17 23 -70z m154 -6 c0 -51 -3 -65 -15 -65 -12 0 -15 13 -15 60 0 46
-4 62 -16 67 -12 4 -13 8 -3 14 7 4 21 3 31 -2 14 -8 18 -22 18 -74z m110 65
c33 -33 26 -50 -21 -50 -36 0 -40 -3 -37 -21 5 -35 33 -47 57 -25 25 23 28 10
4 -16 -22 -24 -69 -24 -83 1 -18 34 -12 80 15 106 29 30 39 31 65 5z m110 -7
c0 -10 -4 -11 -19 -3 -34 18 -35 -8 -2 -39 36 -33 39 -51 12 -75 -25 -23 -71
-12 -71 17 0 20 1 20 20 2 16 -15 23 -16 33 -6 9 10 5 18 -21 39 -37 31 -41
55 -11 75 24 17 59 11 59 -10z m-5365 8 c3 -5 1 -12 -5 -16 -5 -3 -10 1 -10 9
0 18 6 21 15 7z m1138 -42 c-10 -20 -18 -27 -23 -20 -3 7 -14 9 -22 6 -20 -8
-34 13 -19 28 8 8 11 8 11 0 0 -6 9 -9 20 -6 12 3 20 14 20 25 0 16 3 18 14 9
12 -10 12 -16 -1 -42z m710 36 c71 -15 148 -51 155 -72 2 -9 -7 -8 -33 3 -46
19 -58 11 -16 -11 17 -8 31 -17 31 -19 0 -17 -15 -36 -29 -37 -12 0 -12 -2 4
-9 18 -8 17 -9 -7 -9 -15 -1 -30 -6 -34 -12 -4 -7 -9 -8 -17 0 -7 7 -16 7 -29
0 -14 -7 -24 -7 -34 2 -11 9 -18 9 -32 -4 -15 -13 -19 -13 -30 -1 -23 25 -50
1 -43 -38 l6 -33 3 30 c4 33 21 59 23 35 1 -8 2 -24 3 -34 0 -11 7 -21 15 -24
8 -3 11 0 7 7 -4 6 -2 11 3 11 6 0 11 -5 11 -11 0 -7 11 -9 30 -6 16 4 31 3
34 -1 3 -6 39 -7 84 -3 20 2 14 27 -10 44 -13 9 -18 16 -11 16 30 2 59 -62 33
-71 -6 -2 -12 -13 -13 -25 -1 -14 -14 -28 -37 -39 -35 -17 -35 -17 -10 -24 23
-5 21 -7 -20 -18 -25 -7 -79 -16 -120 -21 l-75 -8 70 -2 c39 0 99 6 134 14 77
19 90 13 24 -10 -152 -53 -386 -13 -477 84 -40 42 -48 124 -17 174 24 39 76
76 141 100 104 39 178 45 283 22z m3007 -4 c14 -28 13 -31 -12 -31 -18 0 -20
2 -9 9 12 8 12 12 2 25 -9 10 -9 16 -3 16 6 0 16 -9 22 -19z m195 9 c-3 -5
-12 -10 -18 -10 -7 0 -6 4 3 10 19 12 23 12 15 0z m403 -10 c5 -13 3 -13 -12
-1 -13 11 -19 12 -29 2 -9 -10 -6 -17 16 -35 22 -18 28 -30 25 -52 -2 -25 -8
-29 -35 -32 -26 -3 -33 0 -33 14 0 14 3 15 12 6 7 -7 18 -12 25 -12 22 0 15
31 -12 52 -27 21 -32 47 -13 66 16 16 50 11 56 -8z m46 -25 c4 -25 11 -45 15
-45 5 0 6 -11 3 -25 -7 -40 -18 -29 -30 28 -6 28 -14 60 -17 70 -5 11 -2 17 8
17 10 0 17 -15 21 -45z m-4234 19 c0 -14 -3 -14 -15 -4 -8 7 -15 14 -15 16 0
2 7 4 15 4 8 0 15 -7 15 -16z m-1277 -31 c-4 -11 -3 -14 5 -9 8 5 10 2 6 -8
-3 -9 -9 -16 -13 -16 -3 0 -7 -15 -8 -33 -1 -18 -12 -57 -25 -87 -14 -30 -26
-59 -28 -65 -9 -32 -16 -43 -46 -71 -30 -28 -34 -29 -39 -13 -4 11 -11 19 -16
19 -6 0 -7 -5 -3 -12 5 -7 3 -8 -6 -3 -9 6 -4 16 22 39 19 17 44 48 56 68 27
48 82 179 82 195 0 7 4 13 10 13 5 0 6 -7 3 -17z m1137 -43 c0 -5 -4 -12 -10
-15 -5 -3 -10 -4 -10 -1 0 2 -3 12 -6 20 -5 12 -2 15 10 10 9 -3 16 -10 16
-14z m-76 -15 c24 -18 18 -26 -12 -18 -12 3 -22 12 -22 19 0 18 10 17 34 -1z
m140 -72 c-61 -70 -111 -115 -75 -67 18 23 134 144 139 144 2 0 -27 -35 -64
-77z m3652 62 c-10 -8 -24 -11 -29 -8 -6 4 -2 10 9 14 31 12 40 9 20 -6z
m-3736 -15 c13 -9 13 -11 0 -20 -8 -5 -10 -10 -5 -10 11 0 -16 -20 -27 -20 -5
0 -8 7 -8 15 0 8 5 15 11 15 6 0 9 7 5 15 -6 17 2 19 24 5z m-51 -41 c13 -38
13 -39 3 -39 -5 0 -16 16 -25 35 -14 28 -14 35 -3 35 8 0 19 -14 25 -31z
m1958 -1 c-3 -7 -5 -2 -5 12 0 14 2 19 5 13 2 -7 2 -19 0 -25z m2483 7 c-16
-19 -30 -19 -30 1 0 8 4 13 9 9 5 -3 13 0 16 6 4 5 9 8 12 5 3 -3 0 -12 -7
-21z m-3660 -20 c0 -8 3 -14 8 -13 12 2 42 -14 42 -23 0 -6 -8 -5 -19 1 -14 7
-22 7 -26 0 -4 -6 -11 -8 -16 -5 -12 8 -12 55 1 55 6 0 10 -7 10 -15z m85 -15
c27 -30 14 -33 -20 -5 -21 17 -25 24 -14 25 9 0 24 -9 34 -20z m2987 -30 c2
-22 0 -40 -4 -40 -5 0 -8 18 -8 40 0 22 2 40 4 40 2 0 6 -18 8 -40z m44 -3 c2
-20 -1 -37 -7 -37 -6 0 -7 5 -4 10 3 6 3 16 -1 22 -12 19 -12 49 -1 45 5 -1
11 -19 13 -40z m202 18 c-8 -19 -8 -28 3 -41 12 -15 12 -17 -1 -12 -19 6 -25
45 -10 64 18 21 21 17 8 -11z m92 15 c0 -6 11 -23 25 -38 14 -15 25 -30 25
-34 0 -16 -18 -8 -33 15 -13 18 -16 19 -16 5 -2 -37 -21 -16 -21 22 0 22 5 40
10 40 6 0 10 -5 10 -10z m-3870 -43 c0 -40 49 -94 119 -131 85 -44 171 -65
281 -67 72 -2 78 -3 35 -8 -174 -21 -383 57 -434 161 -22 47 -28 83 -11 73 6
-3 10 -16 10 -28z m3744 -26 c-6 -6 -11 1 -18 29 l-7 25 15 -25 c8 -14 12 -27
10 -29z m216 39 c13 -9 13 -10 0 -9 -8 0 -24 4 -35 9 l-20 9 20 0 c11 0 27 -4
35 -9z m-4270 -18 c19 -16 21 -22 11 -40 -10 -19 -8 -25 16 -46 15 -13 25 -27
22 -31 -4 -3 -14 1 -22 10 -9 8 -22 15 -31 15 -17 0 -18 40 -1 53 6 5 3 13 -9
22 -26 20 -42 19 -26 0 19 -23 6 -28 -31 -10 -19 8 -26 13 -16 10 10 -2 17 1
17 9 0 28 40 33 70 8z m4271 -20 c-7 -2 -18 1 -23 6 -8 8 -4 9 13 5 13 -4 18
-8 10 -11z m-4160 -31 c25 -26 39 -61 24 -61 -11 0 -83 79 -77 84 11 11 24 6
53 -23z m-176 -50 c4 -7 -19 -41 -28 -41 -1 0 -3 11 -3 25 -2 25 19 35 31 16z
m95 -83 c0 -14 -18 -9 -24 8 -11 28 -6 39 9 20 8 -11 15 -23 15 -28z m80 32
c0 -5 -4 -10 -10 -10 -5 0 -10 5 -10 10 0 6 5 10 10 10 6 0 10 -4 10 -10z
m-303 -32 c-3 -8 -6 -5 -6 6 -1 11 2 17 5 13 3 -3 4 -12 1 -19z m140 -35 c-3
-10 -5 -2 -5 17 0 19 2 27 5 18 2 -10 2 -26 0 -35z m908 37 c-11 -5 -29 -8
-40 -8 -16 0 -15 2 5 8 34 11 60 11 35 0z m-530 -20 c3 -5 13 -6 24 -3 20 5
61 -31 61 -55 0 -18 -25 -10 -26 9 -2 30 -5 32 -23 15 -17 -16 -21 -16 -55 1
-19 10 -36 23 -36 29 0 13 48 16 55 4z m-511 -75 c5 -42 4 -56 -3 -45 -10 13
-16 119 -7 109 2 -2 7 -31 10 -64z m493 8 c-10 -9 -47 13 -56 33 l-11 25 35
-28 c19 -15 33 -28 32 -30z m-162 37 c3 -5 1 -10 -4 -10 -6 0 -11 5 -11 10 0
6 2 10 4 10 3 0 8 -4 11 -10z m-46 -24 c21 -12 22 -13 5 -18 -34 -9 -39 -8
-39 5 0 6 -4 15 -10 19 -17 13 19 8 44 -6z m-2 -103 c-8 -8 -57 28 -57 42 0 7
-11 20 -25 29 -14 9 -23 22 -19 27 4 6 27 -11 56 -41 27 -29 47 -54 45 -57z
m493 78 c0 -5 -15 -14 -32 -22 -18 -7 -35 -16 -38 -19 -8 -10 -111 1 -104 11
3 5 29 9 57 9 29 1 66 7 82 15 17 7 31 14 33 14 1 1 2 -3 2 -8z m-255 -11 c3
-5 1 -10 -4 -10 -6 0 -11 5 -11 10 0 6 2 10 4 10 3 0 8 -4 11 -10z m-225 -21
c0 -5 -4 -9 -10 -9 -5 0 -10 7 -10 16 0 8 5 12 10 9 6 -3 10 -10 10 -16z m69
12 c7 -5 9 -11 4 -14 -6 -4 -19 0 -29 8 -15 11 -16 14 -4 15 8 0 21 -4 29 -9z
m116 -13 c6 -6 0 -8 -19 -6 -16 2 -31 9 -34 17 -3 10 2 11 19 6 13 -4 29 -12
34 -17z m-273 -26 c5 -18 15 -32 23 -32 8 0 15 -4 15 -10 0 -5 7 -10 15 -10 8
0 15 -4 15 -10 0 -15 -6 -13 -50 16 -22 15 -40 34 -40 43 0 9 -6 23 -12 30
-11 10 -9 12 6 9 12 -2 23 -15 28 -36z m-48 12 c4 -10 1 -14 -6 -12 -15 5 -23
28 -10 28 5 0 13 -7 16 -16z m-868 -24 c47 -4 87 -10 91 -14 9 -9 -39 -6 -122
7 -38 5 -78 10 -88 9 -9 0 -15 4 -11 9 3 5 15 7 26 3 11 -3 58 -9 104 -14z
m1438 -12 c-8 -27 -12 -33 -19 -27 -7 8 7 49 17 49 5 0 6 -10 2 -22z m-413
-11 c-1 -12 -15 -9 -19 4 -3 6 1 10 8 8 6 -3 11 -8 11 -12z m469 9 c0 -11 -19
-15 -25 -6 -3 5 1 10 9 10 9 0 16 -2 16 -4z m-585 -27 c11 -17 -1 -21 -15 -4
-8 9 -8 15 -2 15 6 0 14 -5 17 -11z m4215 1 c0 -5 -8 -10 -17 -10 -15 0 -16 2
-3 10 19 12 20 12 20 0z m-3725 -10 c3 -5 1 -10 -4 -10 -6 0 -11 5 -11 10 0 6
2 10 4 10 3 0 8 -4 11 -10z m75 6 c0 -3 -4 -8 -10 -11 -5 -3 -10 -1 -10 4 0 6
5 11 10 11 6 0 10 -2 10 -4z m-240 -10 c0 -3 -4 -8 -10 -11 -5 -3 -10 -1 -10
4 0 6 5 11 10 11 6 0 10 -2 10 -4z m-286 -32 c3 -8 10 -12 16 -9 6 3 13 -1 16
-9 3 -9 12 -16 20 -16 8 0 14 -4 14 -10 0 -5 -7 -10 -15 -10 -8 0 -15 5 -15
10 0 6 -6 10 -12 10 -15 1 -54 50 -40 50 6 0 13 -7 16 -16z m76 6 c0 -5 -7
-10 -15 -10 -8 0 -15 5 -15 10 0 6 7 10 15 10 8 0 15 -4 15 -10z m206 -18
c-18 -16 -18 -16 -6 6 6 13 14 21 18 18 3 -4 -2 -14 -12 -24z m134 18 c0 -5
-4 -10 -10 -10 -5 0 -10 5 -10 10 0 6 5 10 10 10 6 0 10 -4 10 -10z m80 0 c0
-5 -7 -10 -16 -10 -8 0 -12 5 -9 10 3 6 10 10 16 10 5 0 9 -4 9 -10z m-30 -24
c0 -3 -4 -8 -10 -11 -5 -3 -10 -1 -10 4 0 6 5 11 10 11 6 0 10 -2 10 -4z
m2338 -18 c-2 -6 -10 -14 -16 -16 -7 -2 -10 2 -6 12 7 18 28 22 22 4z m-2368
-20 c0 -10 -27 -10 -34 0 -2 4 4 8 15 8 10 0 19 -4 19 -8z m40 -32 c-13 -13
-35 7 -25 24 5 8 11 8 21 -1 10 -8 12 -15 4 -23z m3550 12 c0 -6 -6 -5 -15 2
-8 7 -15 14 -15 16 0 2 7 1 15 -2 8 -4 15 -11 15 -16z m54 6 c5 -14 4 -15 -9
-4 -17 14 -19 20 -6 20 5 0 12 -7 15 -16z m-3419 -14 c29 -7 29 -8 5 -11 -14
-1 4 -5 40 -9 l65 -7 -75 -2 c-41 -1 -120 -4 -175 -6 -101 -5 -208 -7 -235 -5
-25 1 46 28 95 35 36 6 44 5 40 -6 -8 -22 46 -21 75 1 26 21 105 25 165 10z
m-658 -54 c8 -8 -35 -7 -64 0 -37 10 -16 23 23 14 19 -5 38 -11 41 -14z m1249
-10 c40 -9 79 -16 88 -16 9 0 16 -4 16 -10 0 -5 -8 -10 -17 -10 -27 0 -113
-33 -113 -43 0 -5 12 -6 28 -2 l27 6 -22 -20 c-19 -18 -20 -24 -10 -50 7 -19
24 -35 46 -45 l36 -15 -48 5 c-35 3 -47 2 -42 -7 9 -14 -46 -3 -92 19 -28 13
-30 17 -16 30 14 14 13 17 -3 29 -16 12 -15 13 13 13 19 0 33 6 37 16 5 13 1
14 -22 10 -39 -9 -53 4 -46 42 5 25 12 32 30 32 12 0 26 -4 29 -10 8 -13 25
-13 25 0 0 5 -16 16 -35 24 -42 18 -48 38 -7 26 15 -5 59 -16 98 -24z m-878 7
c-10 -2 -28 -2 -40 0 -13 2 -5 4 17 4 22 1 32 -1 23 -4z m-78 -11 c0 -8 -121
-42 -128 -37 -1 1 0 9 4 18 4 11 21 17 52 20 26 2 53 4 60 5 6 1 12 -2 12 -6z
m-130 -12 c0 -4 -6 -10 -14 -13 -18 -7 -61 4 -48 12 15 9 62 10 62 1z m3940
-10 c0 -5 -5 -10 -11 -10 -5 0 -7 5 -4 10 3 6 8 10 11 10 2 0 4 -4 4 -10z
m-3325 -20 c13 -21 -52 -31 -185 -29 -74 1 -151 -2 -171 -6 -36 -7 -68 12 -55
34 8 13 403 14 411 1z m-458 -7 c-11 -3 -16 -11 -13 -19 3 -9 -7 -16 -32 -23
-44 -11 -92 -12 -92 -1 0 23 63 48 120 48 19 0 27 -2 17 -5z m1487 -20 c26 -5
27 -6 12 -22 -25 -25 -206 -23 -264 3 -23 10 -42 23 -42 28 0 10 235 2 294 -9z
m1206 -10 c3 -3 -25 -3 -62 -1 -37 3 -71 8 -75 12 -8 8 128 -3 137 -11z m-352
0 c-10 -2 -28 -2 -40 0 -13 2 -5 4 17 4 22 1 32 -1 23 -4z m1517 -13 c-3 -5
-11 -10 -16 -10 -6 0 -7 5 -4 10 3 6 11 10 16 10 6 0 7 -4 4 -10z m-55 -4 c0
-3 -4 -8 -10 -11 -5 -3 -10 -1 -10 4 0 6 5 11 10 11 6 0 10 -2 10 -4z m-3015
-36 c3 -5 2 -10 -4 -10 -5 0 -13 5 -16 10 -3 6 -2 10 4 10 5 0 13 -4 16 -10z
m213 -87 c-10 -2 -26 -2 -35 0 -10 3 -2 5 17 5 19 0 27 -2 18 -5z m79 -9 c-3
-3 -12 -4 -19 -1 -8 3 -5 6 6 6 11 1 17 -2 13 -5z m1473 -2 c0 -4 15 -7 33 -5
189 14 261 13 132 -3 -55 -6 -58 -8 -30 -15 17 -5 44 -7 60 -4 27 5 28 5 13
-8 -11 -8 -53 -17 -100 -20 -87 -6 -114 -2 -59 9 68 14 9 23 -171 26 -239 5
-269 22 -42 25 90 1 164 -1 164 -5z m-1192 -9 c-26 -2 -71 -2 -100 0 -29 2 -8
3 47 3 55 0 79 -1 53 -3z m1158 -62 c5 -5 20 -11 34 -14 14 -2 -22 -4 -80 -4
-81 0 -92 1 -48 6 31 3 60 9 64 14 10 9 18 9 30 -2z m287 -8 c-7 -2 -19 -2
-25 0 -7 3 -2 5 12 5 14 0 19 -2 13 -5z"/>
<path d="M5630 3200 c0 -5 5 -10 10 -10 6 0 10 5 10 10 0 6 -4 10 -10 10 -5 0
-10 -4 -10 -10z"/>
<path d="M365 821 c30 -35 95 -70 161 -87 33 -8 67 -17 78 -20 11 -4 16 -2 12
4 -3 6 -32 16 -64 22 -63 13 -118 38 -172 78 -32 24 -33 24 -15 3z"/>
<path d="M605 760 c11 -5 29 -9 40 -9 l20 0 -20 9 c-11 5 -29 9 -40 9 l-20 0
20 -9z"/>
<path d="M2327 2053 c-14 -13 -7 -62 11 -72 36 -19 70 37 40 67 -13 13 -41 16
-51 5z"/>
<path d="M4690 1825 c0 -16 16 -20 24 -6 3 5 -1 11 -9 15 -9 3 -15 0 -15 -9z"/>
<path d="M4932 1824 c-6 -11 -14 -14 -23 -8 -8 5 -24 10 -36 12 -20 2 -22 -1
-17 -28 4 -19 2 -30 -5 -30 -6 0 -11 -4 -11 -10 0 -12 29 -2 52 17 11 10 27
13 47 8 24 -5 33 -3 37 10 4 10 13 14 26 9 14 -4 18 -2 14 5 -4 6 -16 11 -27
11 -10 0 -19 5 -19 10 0 16 -28 11 -38 -6z"/>
<path d="M4023 1823 c-16 -6 -17 -25 -2 -40 8 -8 18 -8 35 -1 19 9 28 8 42 -5
10 -10 23 -17 29 -17 6 0 16 -6 22 -14 9 -11 7 -15 -11 -19 -12 -4 -25 -3 -28
2 -15 24 -140 46 -126 22 3 -5 18 -8 32 -6 19 2 28 -3 31 -16 4 -14 11 -17 34
-12 18 3 29 1 29 -5 0 -6 7 -9 15 -6 9 4 18 -1 22 -11 6 -17 7 -17 20 1 17 24
17 27 -11 57 -16 17 -22 33 -19 47 4 16 1 20 -16 20 -12 0 -31 -5 -42 -10 -15
-8 -19 -7 -19 5 0 15 -14 18 -37 8z"/>
<path d="M4280 1820 c0 -5 5 -10 10 -10 6 0 10 5 10 10 0 6 -4 10 -10 10 -5 0
-10 -4 -10 -10z"/>
<path d="M4235 1807 c-16 -13 -16 -14 -1 -20 10 -4 19 -1 23 9 8 21 -1 26 -22
11z"/>
<path d="M4730 1806 c0 -20 13 -27 30 -15 13 8 13 10 0 19 -21 14 -30 12 -30
-4z"/>
<path d="M4164 1788 c-3 -5 2 -18 12 -29 17 -19 19 -19 25 -2 4 10 8 21 8 24
2 11 -39 18 -45 7z"/>
<path d="M4470 1790 c-9 -6 -10 -10 -3 -10 6 0 15 5 18 10 8 12 4 12 -15 0z"/>
<path d="M4791 1791 c-14 -9 -9 -41 7 -41 15 0 34 28 27 40 -8 12 -16 13 -34
1z"/>
<path d="M4283 1773 c-18 -7 -16 -23 2 -23 8 0 15 7 15 15 0 8 -1 15 -2 14 -2
0 -9 -3 -15 -6z"/>
<path d="M4690 1765 c0 -8 9 -15 20 -15 24 0 27 15 4 24 -22 9 -24 8 -24 -9z"/>
<path d="M4896 1745 c-20 -20 -24 -21 -44 -7 -32 21 -51 2 -32 -33 12 -23 14
-23 26 -7 7 9 16 14 20 10 4 -4 13 0 20 10 10 14 15 15 25 5 18 -18 26 -16 32
8 4 15 11 19 24 15 10 -3 25 -1 33 4 8 5 11 10 5 10 -5 1 -27 2 -49 4 -28 2
-44 -2 -60 -19z"/>
<path d="M4440 1751 c0 -5 5 -13 10 -16 6 -3 10 -2 10 4 0 5 -4 13 -10 16 -5
3 -10 2 -10 -4z"/>
<path d="M4736 1747 c-11 -8 -15 -19 -10 -30 8 -22 16 -22 31 1 16 26 2 46
-21 29z"/>
<path d="M4235 1740 c-7 -11 5 -40 16 -40 5 0 9 2 9 4 0 2 3 11 6 19 6 16 -22
32 -31 17z"/>
<path d="M4475 1710 c-3 -5 -2 -10 4 -10 5 0 13 5 16 10 3 6 2 10 -4 10 -5 0
-13 -4 -16 -10z"/>
<path d="M4185 1688 c10 -33 13 -34 32 -15 19 19 18 22 -15 32 -22 6 -23 5
-17 -17z"/>
<path d="M4763 1697 c-3 -5 2 -16 11 -25 15 -15 18 -15 26 -2 5 8 10 20 10 27
0 13 -39 13 -47 0z"/>
<path d="M5040 1620 c-8 -5 -10 -10 -5 -10 6 0 17 5 25 10 8 5 11 10 5 10 -5
0 -17 -5 -25 -10z"/>
<path d="M4024 1554 c3 -9 6 -51 6 -95 0 -64 3 -79 15 -79 11 0 15 12 15 46 0
45 0 45 33 42 31 -3 32 -4 32 -51 0 -39 3 -47 19 -47 17 0 18 6 12 61 -3 34
-6 79 -6 100 0 28 -4 39 -15 39 -11 0 -15 -11 -15 -40 0 -39 -1 -40 -36 -40
-36 0 -36 0 -32 40 3 34 1 40 -15 40 -13 0 -17 -5 -13 -16z"/>
<path d="M5037 1535 c3 -8 9 -12 14 -9 12 7 11 11 -5 17 -10 4 -13 1 -9 -8z"/>
<path d="M4200 1500 c-13 -13 -20 -33 -20 -59 0 -65 47 -93 85 -51 21 23 14
26 -16 8 -17 -11 -22 -10 -35 6 -8 11 -14 28 -14 38 0 14 8 18 40 18 37 0 40
2 30 20 -19 35 -47 43 -70 20z m48 -17 c2 -8 -6 -13 -22 -13 -25 0 -33 10 -19
24 10 10 36 3 41 -11z"/>
<path d="M4716 1508 c-27 -15 -19 -54 15 -79 28 -20 29 -23 15 -37 -12 -13
-18 -13 -28 -4 -17 17 -29 15 -22 -3 7 -18 55 -20 72 -3 20 20 13 46 -18 70
-31 22 -40 48 -17 48 7 0 18 -5 25 -12 9 -9 12 -8 12 4 0 19 -31 29 -54 16z"/>
<path d="M4807 1502 c-23 -26 -21 -35 14 -66 25 -22 28 -30 18 -42 -10 -13
-14 -12 -30 2 -17 15 -19 15 -19 1 0 -21 34 -31 60 -17 30 16 26 55 -10 80
-25 18 -29 25 -19 36 10 13 14 12 30 -2 17 -15 19 -15 19 -2 0 14 -19 28 -39
28 -4 0 -15 -8 -24 -18z"/>
<path d="M4880 1513 c0 -5 7 -30 15 -57 21 -69 19 -95 -7 -105 -15 -5 -18 -10
-9 -15 6 -4 18 -3 25 3 16 13 71 170 62 178 -3 3 -11 -15 -18 -41 -7 -25 -15
-46 -19 -46 -4 0 -10 20 -13 45 -5 29 -12 45 -22 45 -8 0 -14 -3 -14 -7z"/>
<path d="M4301 1500 c-3 -3 -5 -33 -3 -67 3 -45 8 -63 17 -63 10 0 15 17 17
58 3 49 6 57 23 57 17 0 20 -8 23 -57 2 -43 7 -58 17 -58 20 0 21 113 1 129
-13 11 -80 11 -95 1z"/>
<path d="M4451 1502 c-7 -2 -11 -30 -11 -68 0 -55 3 -64 18 -64 15 0 17 6 14
35 -6 52 5 85 28 85 18 0 20 -7 20 -60 0 -50 3 -60 18 -60 15 0 16 8 12 67
l-5 68 -41 0 c-23 1 -47 -1 -53 -3z"/>
<path d="M4598 1493 c-27 -29 -32 -70 -14 -98 20 -31 56 -33 82 -4 19 21 19
21 -10 8 -25 -12 -30 -11 -42 6 -22 29 -17 45 14 45 41 0 60 15 46 37 -15 25
-56 28 -76 6z m52 -8 c11 -13 8 -15 -20 -15 -28 0 -31 2 -20 15 7 8 16 15 20
15 4 0 13 -7 20 -15z"/>
<path d="M3951 1444 c0 -11 3 -14 6 -6 3 7 2 16 -1 19 -3 4 -6 -2 -5 -13z"/>
<path d="M5030 1455 c0 -5 5 -17 10 -25 5 -8 10 -10 10 -5 0 6 -5 17 -10 25
-5 8 -10 11 -10 5z"/>
<path d="M5023 1364 c-7 -7 -13 -21 -13 -31 1 -13 5 -10 16 10 17 32 16 42 -3
21z"/>
<path d="M3962 1340 c-10 -17 -10 -20 3 -20 8 0 15 9 15 20 0 11 -1 20 -3 20
-1 0 -8 -9 -15 -20z"/>
<path d="M4140 1285 c-7 -9 -8 -15 -2 -15 5 0 12 7 16 15 3 8 4 15 2 15 -2 0
-9 -7 -16 -15z"/>
<path d="M4180 1291 c0 -6 5 -13 10 -16 6 -3 10 1 10 9 0 9 -4 16 -10 16 -5 0
-10 -4 -10 -9z"/>
<path d="M4255 1290 c-3 -5 -1 -10 4 -10 6 0 11 5 11 10 0 6 -2 10 -4 10 -3 0
-8 -4 -11 -10z"/>
<path d="M4337 1283 c3 -7 6 -13 8 -13 1 0 7 6 13 13 8 10 6 13 -7 13 -11 0
-17 -6 -14 -13z"/>
<path d="M4511 1284 c0 -11 3 -14 6 -6 3 7 2 16 -1 19 -3 4 -6 -2 -5 -13z"/>
<path d="M4591 1284 c0 -11 3 -14 6 -6 3 7 2 16 -1 19 -3 4 -6 -2 -5 -13z"/>
<path d="M4741 1284 c0 -11 3 -14 6 -6 3 7 2 16 -1 19 -3 4 -6 -2 -5 -13z"/>
<path d="M4787 1294 c-12 -13 -7 -20 13 -20 11 0 19 5 17 10 -4 13 -21 18 -30
10z"/>
<path d="M4840 1285 c0 -8 4 -15 10 -15 5 0 7 7 4 15 -4 8 -8 15 -10 15 -2 0
-4 -7 -4 -15z"/>
<path d="M4280 1279 c0 -5 5 -7 10 -4 6 3 10 8 10 11 0 2 -4 4 -10 4 -5 0 -10
-5 -10 -11z"/>
<path d="M4987 1230 c-4 -16 0 -20 19 -20 22 0 23 2 12 20 -7 11 -16 20 -19
20 -4 0 -9 -9 -12 -20z"/>
<path d="M3985 1230 c3 -5 -2 -10 -12 -11 -16 0 -16 -1 2 -8 11 -5 23 -7 27
-4 10 5 -2 33 -14 33 -5 0 -6 -4 -3 -10z"/>
<path d="M4396 1197 c3 -10 9 -15 12 -12 3 3 0 11 -7 18 -10 9 -11 8 -5 -6z"/>
<path d="M4534 1191 c11 -11 23 -21 28 -21 14 0 -1 19 -25 31 -22 12 -22 12
-3 -10z"/>
<path d="M4620 1190 c6 -11 16 -20 22 -20 6 0 3 9 -7 20 -10 11 -20 20 -22 20
-2 0 1 -9 7 -20z"/>
<path d="M4350 1191 c0 -6 4 -13 10 -16 6 -3 7 1 4 9 -7 18 -14 21 -14 7z"/>
<path d="M4430 1191 c0 -6 4 -13 10 -16 6 -3 7 1 4 9 -7 18 -14 21 -14 7z"/>
<path d="M3927 1163 c-4 -3 -7 -11 -7 -17 0 -6 5 -5 12 2 6 6 9 14 7 17 -3 3
-9 2 -12 -2z"/>
<path d="M5050 1160 c0 -5 5 -10 11 -10 5 0 7 5 4 10 -3 6 -8 10 -11 10 -2 0
-4 -4 -4 -10z"/>
<path d="M3977 1140 c6 -7 9 -19 6 -26 -7 -19 11 -18 27 1 15 18 13 20 -20 30
-20 6 -22 5 -13 -5z"/>
<path d="M4987 1141 c-17 -6 -17 -8 1 -24 19 -17 20 -17 24 8 6 26 4 28 -25
16z"/>
<path d="M4695 1130 c-19 -7 -19 -7 1 -18 12 -6 25 -8 29 -4 3 4 5 0 3 -8 -3
-17 23 -21 29 -4 6 17 -39 42 -62 34z"/>
<path d="M4162 1121 c-19 -12 -11 -45 12 -49 28 -6 37 11 18 35 -11 15 -21 20
-30 14z"/>
<path d="M4469 1113 c-13 -16 -12 -17 4 -4 9 7 17 15 17 17 0 8 -8 3 -21 -13z"/>
<path d="M4798 1123 c-19 -5 -22 -12 -12 -37 9 -23 51 -20 59 4 11 35 -3 45
-47 33z"/>
<path d="M4275 1109 c-4 -6 -5 -12 -2 -15 2 -3 7 2 10 11 7 17 1 20 -8 4z"/>
<path d="M4021 1091 c-8 -5 -11 -16 -6 -30 8 -27 23 -27 34 2 13 34 1 46 -28
28z"/>
<path d="M4110 1089 c0 -6 -7 -8 -15 -5 -21 8 -29 -17 -15 -44 l11 -21 25 24
c15 15 22 31 18 41 -7 18 -24 22 -24 5z"/>
<path d="M4683 1085 c0 -8 6 -15 13 -15 8 0 11 6 8 15 -4 8 -9 15 -13 15 -4 0
-8 -7 -8 -15z"/>
<path d="M4857 1087 c-5 -13 25 -57 40 -57 4 0 14 9 21 21 17 27 -2 56 -24 38
-10 -8 -14 -8 -14 0 0 15 -17 14 -23 -2z"/>
<path d="M4935 1090 c-3 -6 -2 -10 4 -10 6 0 8 -6 5 -14 -3 -8 -1 -17 4 -20
12 -7 48 32 38 41 -11 11 -45 13 -51 3z"/>
<path d="M5003 1060 c-51 -59 -154 -79 -161 -31 -3 19 -8 22 -28 17 -13 -3
-35 -9 -49 -12 -16 -4 -25 -2 -25 5 0 9 -5 9 -21 1 -11 -7 -23 -9 -27 -6 -3 3
-1 6 4 6 5 0 -2 6 -16 14 -25 13 -40 12 -40 -4 0 -9 40 -22 83 -26 50 -6 56
-7 52 -14 -2 -4 6 -17 19 -29 23 -21 25 -22 34 -5 9 16 12 16 26 4 10 -7 15
-19 12 -26 -5 -14 17 -37 27 -27 4 3 7 13 7 22 0 9 4 22 9 30 7 11 13 10 31
-7 27 -25 40 -20 40 16 1 16 15 43 35 67 l35 40 0 -29 c0 -34 12 -27 16 9 4
37 -25 31 -63 -15z"/>
<path d="M3930 1059 c0 -5 5 -7 10 -4 6 3 10 8 10 11 0 2 -4 4 -10 4 -5 0 -10
-5 -10 -11z"/>
<path d="M4536 1046 c1 -12 3 -22 3 -24 1 -5 31 25 31 31 0 3 -8 7 -18 9 -14
4 -18 0 -16 -16z"/>
<path d="M3993 1033 c15 -17 27 -40 27 -56 0 -32 13 -35 34 -6 18 26 32 19 39
-21 9 -40 25 -38 33 5 6 36 27 47 38 20 3 -9 12 -12 21 -8 12 4 13 8 5 13 -9
5 -9 9 -1 14 6 4 15 5 20 2 5 -3 8 5 7 17 -1 18 -6 23 -20 19 -13 -3 -17 -1
-12 6 5 8 -1 12 -15 12 -17 0 -20 -4 -16 -21 12 -45 -88 -37 -158 13 l-30 21
28 -30z"/>
<path d="M4419 1044 c-12 -15 -11 -16 10 -9 18 5 22 4 16 -6 -6 -9 -3 -11 9
-6 10 4 20 7 22 7 2 0 4 5 4 11 0 5 -5 7 -10 4 -6 -4 -17 -2 -24 4 -10 8 -17
7 -27 -5z"/>
<path d="M4511 1030 c10 -27 44 -46 54 -30 3 4 -7 11 -21 14 -16 4 -24 12 -21
21 3 7 0 16 -8 19 -11 4 -12 -1 -4 -24z"/>
<path d="M4260 1040 c0 -5 5 -10 11 -10 5 0 7 5 4 10 -3 6 -8 10 -11 10 -2 0
-4 -4 -4 -10z"/>
<path d="M4590 1040 c0 -5 4 -10 9 -10 6 0 13 5 16 10 3 6 -1 10 -9 10 -9 0
-16 -4 -16 -10z"/>
<path d="M3945 1030 c-19 -8 -19 -9 3 -9 12 -1 22 4 22 9 0 6 -1 10 -2 9 -2 0
-12 -4 -23 -9z"/>
<path d="M5012 1028 c-17 -17 -15 -35 4 -42 21 -8 24 -8 24 5 0 5 -4 7 -10 4
-5 -3 -10 -2 -10 4 0 5 5 13 10 16 12 7 13 25 2 25 -4 0 -13 -5 -20 -12z"/>
<path d="M3967 1000 c-14 -17 -15 -20 -2 -20 9 0 18 7 22 15 9 24 -1 27 -20 5z"/>
<path d="M4420 1010 c0 -13 18 -22 24 -11 3 5 -1 11 -9 15 -8 3 -15 1 -15 -4z"/>
<path d="M4585 1000 c-3 -5 1 -10 10 -10 9 0 13 5 10 10 -3 6 -8 10 -10 10 -2
0 -7 -4 -10 -10z"/>
<path d="M4350 990 c0 -5 5 -10 11 -10 5 0 7 5 4 10 -3 6 -8 10 -11 10 -2 0
-4 -4 -4 -10z"/>
<path d="M4625 990 c-3 -5 -1 -10 4 -10 6 0 11 5 11 10 0 6 -2 10 -4 10 -3 0
-8 -4 -11 -10z"/>
<path d="M4706 968 c3 -4 12 -8 19 -8 9 0 12 -7 9 -17 -5 -17 -5 -17 6 0 14
21 6 36 -20 34 -10 -1 -16 -5 -14 -9z"/>
<path d="M4670 966 c0 -2 7 -9 15 -16 13 -11 14 -10 9 4 -5 14 -24 23 -24 12z"/>
<path d="M4450 810 c0 -5 4 -10 9 -10 6 0 13 5 16 10 3 6 -1 10 -9 10 -9 0
-16 -4 -16 -10z"/>
<path d="M4665 809 c-4 -6 -5 -12 -2 -15 2 -3 7 2 10 11 7 17 1 20 -8 4z"/>
<path d="M3391 1721 c-9 -6 -10 -11 -2 -15 13 -8 31 1 31 15 0 11 -11 11 -29
0z"/>
<path d="M3350 1675 c-7 -9 -11 -18 -8 -20 3 -3 11 1 18 10 7 9 11 18 8 20 -3
3 -11 -1 -18 -10z"/>
<path d="M3399 1585 c19 -8 36 -13 39 -10 9 8 -3 15 -39 20 l-34 6 34 -16z"/>
<path d="M3508 1553 c-27 -7 -22 -23 7 -23 18 0 23 4 19 15 -4 8 -7 14 -8 14
0 -1 -9 -3 -18 -6z"/>
<path d="M3393 1538 c17 -11 75 -10 82 2 3 5 -14 8 -44 7 -27 -1 -44 -5 -38
-9z"/>
<path d="M3445 1500 c11 -5 27 -9 35 -9 9 0 8 4 -5 9 -11 5 -27 9 -35 9 -9 0
-8 -4 5 -9z"/>
<path d="M3010 1425 c0 -55 3 -75 13 -75 9 0 12 11 9 35 -4 33 -3 35 27 35 29
0 31 -3 31 -35 0 -21 5 -35 13 -35 16 0 14 143 -2 148 -6 2 -11 -9 -11 -27 0
-28 -3 -31 -31 -31 -29 0 -31 2 -27 30 3 20 0 30 -9 30 -10 0 -13 -19 -13 -75z"/>
<path d="M3148 1449 c-19 -11 -24 -63 -9 -87 9 -16 53 -13 58 4 2 6 -7 10 -19
10 -14 -1 -24 6 -26 17 -3 13 3 17 22 17 28 0 34 18 14 38 -14 14 -18 14 -40
1z m32 -20 c0 -5 -7 -9 -15 -9 -15 0 -20 12 -9 23 8 8 24 -1 24 -14z"/>
<path d="M3243 1453 c-20 -4 -23 -11 -23 -54 0 -60 18 -65 22 -6 2 29 8 42 18
42 11 0 15 -11 15 -43 0 -27 4 -42 13 -42 16 0 16 82 0 98 -7 7 -14 11 -17 11
-4 -1 -16 -4 -28 -6z"/>
<path d="M3343 1453 c-20 -4 -23 -11 -23 -54 0 -32 4 -49 13 -49 8 0 12 15 12
42 0 32 4 43 15 43 11 0 15 -11 15 -43 0 -23 3 -42 8 -42 4 0 10 0 14 0 11 0
3 83 -9 98 -6 6 -13 11 -17 11 -3 -1 -16 -4 -28 -6z"/>
<path d="M3407 1283 c-20 -19 7 -73 36 -73 6 0 1 7 -11 16 -26 18 -28 39 -4
53 14 9 15 10 1 11 -9 0 -19 -3 -22 -7z"/>
<path d="M3307 1239 c4 -13 8 -18 11 -10 2 7 -1 18 -6 23 -8 8 -9 4 -5 -13z"/>
<path d="M3330 1070 c0 -5 5 -10 11 -10 5 0 7 5 4 10 -3 6 -8 10 -11 10 -2 0
-4 -4 -4 -10z"/>
<path d="M3370 1070 c-13 -8 -12 -10 3 -10 9 0 17 5 17 10 0 12 -1 12 -20 0z"/>
<path d="M3235 970 l-40 -6 32 -5 c18 -3 38 -2 45 2 19 12 7 15 -37 9z"/>
<path d="M3331 964 c0 -11 3 -14 6 -6 3 7 2 16 -1 19 -3 4 -6 -2 -5 -13z"/>
<path d="M3300 960 c0 -5 5 -10 10 -10 6 0 10 5 10 10 0 6 -4 10 -10 10 -5 0
-10 -4 -10 -10z"/>
<path d="M2267 1599 c7 -7 15 -10 18 -7 3 3 -2 9 -12 12 -14 6 -15 5 -6 -5z"/>
<path d="M5733 1504 c2 -3 13 -6 23 -8 11 -3 27 -7 37 -11 10 -4 17 -3 17 4 0
12 -1 13 -48 17 -19 1 -32 0 -29 -2z"/>
<path d="M5760 1385 c-11 -13 -9 -15 15 -15 16 0 25 5 23 12 -7 19 -24 20 -38
3z"/>
<path d="M1983 1245 c-3 -9 -3 -18 -1 -21 3 -3 8 4 11 16 6 23 -1 27 -10 5z"/>
<path d="M2060 1210 c0 -27 5 -50 10 -50 6 0 10 23 10 50 0 28 -4 50 -10 50
-5 0 -10 -22 -10 -50z"/>
<path d="M2118 1238 c-5 -33 3 -78 13 -78 5 0 9 8 9 18 1 16 1 16 11 0 5 -10
18 -18 27 -18 16 1 16 1 -1 11 -12 7 -16 18 -11 37 5 26 5 26 -10 8 -16 -19
-16 -19 -16 6 0 34 -17 46 -22 16z"/>
<path d="M2217 1223 c-11 -10 -8 -63 3 -63 6 0 10 16 10 35 0 36 -2 40 -13 28z"/>
<path d="M2248 1195 c2 -19 8 -35 14 -35 13 0 6 63 -8 67 -6 2 -8 -10 -6 -32z"/>
<path d="M1999 1133 c25 -49 151 -114 218 -112 18 0 4 7 -37 18 -82 22 -117
41 -159 83 -24 23 -30 27 -22 11z"/>
<path d="M1940 930 c18 -12 30 -13 30 -2 0 4 -10 9 -22 9 -18 2 -20 0 -8 -7z"/>
<path d="M2828 393 c7 -3 16 -2 19 1 4 3 -2 6 -13 5 -11 0 -14 -3 -6 -6z"/>
<path d="M5444 3942 c-8 -5 -9 -27 -4 -72 4 -36 8 -63 9 -60 4 10 12 45 18 85
3 22 11 43 17 47 7 5 3 8 -9 8 -11 0 -25 -4 -31 -8z"/>
<path d="M3172 3931 c-18 -5 -35 -11 -37 -13 -2 -2 -3 -73 -2 -158 1 -85 1
-257 1 -381 l0 -226 202 1 203 0 -4 379 c-2 272 -6 382 -14 390 -14 14 -298
20 -349 8z m298 -431 c0 -5 -10 -10 -22 -10 -19 0 -20 2 -8 10 19 13 30 13 30
0z m40 -85 c0 -12 -29 -3 -34 10 -4 13 -2 14 14 5 11 -6 20 -13 20 -15z m-200
-45 c0 -5 -2 -10 -4 -10 -3 0 -8 5 -11 10 -3 6 -1 10 4 10 6 0 11 -4 11 -10z
m-97 -48 c-3 -12 2 -10 15 6 24 26 32 28 32 7 0 -9 -7 -18 -15 -21 -10 -4 -13
-14 -9 -30 4 -15 2 -24 -5 -24 -6 0 -12 8 -12 18 -1 9 -5 1 -9 -18 -7 -31 -8
-29 -9 22 0 31 -4 65 -7 75 -5 17 -5 17 9 0 9 -11 13 -26 10 -35z m77 28 c0
-5 -4 -10 -10 -10 -5 0 -10 5 -10 10 0 6 5 10 10 10 6 0 10 -4 10 -10z"/>
<path d="M4569 3829 c-5 -54 -12 -68 -52 -108 -10 -11 -14 -22 -9 -25 5 -3 18
4 28 15 11 12 29 25 42 30 14 5 25 20 28 39 4 17 13 30 21 30 13 0 13 3 3 15
-6 8 -15 14 -18 13 -21 -2 -31 5 -34 25 -2 12 -6 -3 -9 -34z"/>
<path d="M5610 3770 c0 -5 5 -10 10 -10 6 0 10 5 10 10 0 6 -4 10 -10 10 -5 0
-10 -4 -10 -10z"/>
<path d="M5610 3730 c0 -5 5 -10 10 -10 6 0 10 5 10 10 0 6 -4 10 -10 10 -5 0
-10 -4 -10 -10z"/>
<path d="M4463 3671 c-23 -20 -30 -41 -14 -41 5 0 13 9 16 20 3 11 13 20 21
20 8 0 14 5 14 10 0 15 -12 12 -37 -9z"/>
<path d="M4410 3615 c0 -8 5 -15 10 -15 6 0 10 7 10 15 0 8 -4 15 -10 15 -5 0
-10 -7 -10 -15z"/>
<path d="M4372 3594 c-6 -16 -11 -22 -11 -14 -1 8 -8 2 -16 -14 -9 -16 -14
-34 -11 -40 3 -7 5 -6 5 2 2 20 21 13 21 -8 0 -11 5 -20 10 -20 14 0 13 23 -2
38 -10 10 -8 14 9 18 28 8 35 27 19 50 -12 16 -14 15 -24 -12z"/>
<path d="M4572 3574 c-5 -11 -8 -55 -7 -99 2 -44 -3 -101 -11 -127 -7 -27 -9
-48 -5 -48 4 0 8 -15 8 -32 1 -18 3 -49 4 -68 l3 -35 -89 -1 c-172 -3 -185 -4
-185 -14 0 -6 76 -10 207 -10 128 0 203 4 198 9 -6 5 -25 11 -43 13 l-33 3 -4
103 c-6 176 -17 307 -25 316 -5 4 -12 0 -18 -10z"/>
<path d="M5556 3555 c-6 -18 2 -45 15 -45 5 0 9 6 9 13 0 8 4 7 10 -3 8 -12
11 -13 19 -1 7 11 9 11 13 0 3 -8 9 -11 13 -7 4 4 0 14 -8 22 -8 9 -18 21 -20
28 -4 10 -8 9 -16 -2 -7 -10 -11 -11 -11 -2 0 17 -17 15 -24 -3z m24 -15 c0
-5 -4 -10 -10 -10 -5 0 -10 5 -10 10 0 6 5 10 10 10 6 0 10 -4 10 -10z m30 0
c0 -5 -4 -10 -10 -10 -5 0 -10 5 -10 10 0 6 5 10 10 10 6 0 10 -4 10 -10z"/>
<path d="M2172 3479 c-78 -9 -112 -22 -112 -43 0 -7 4 -36 9 -63 6 -28 11 -91
12 -142 1 -50 5 -91 10 -91 8 0 6 -104 -7 -341 l-6 -117 49 5 c46 5 83 22 53
24 -8 1 3 7 25 13 l40 13 2 78 c2 53 9 87 20 104 16 25 16 26 -3 11 -10 -8
-25 -21 -32 -27 -29 -28 -30 -11 -2 19 30 31 30 33 28 120 l-3 88 28 0 c15 0
28 -4 28 -10 1 -5 2 -14 3 -19 0 -5 4 -13 9 -17 4 -4 7 -16 7 -26 0 -11 7 -18
20 -18 11 0 20 -4 20 -10 0 -5 -5 -10 -10 -10 -6 0 -15 -11 -21 -24 -6 -13
-21 -29 -33 -35 -11 -7 -14 -10 -5 -7 12 3 16 -3 17 -27 0 -18 6 -69 13 -114
l12 -81 35 -7 c23 -4 31 -9 23 -14 -15 -10 18 -21 63 -21 l28 0 -7 146 c-4 81
-10 182 -14 226 -4 43 -4 81 -1 84 2 3 6 54 8 112 2 59 4 129 5 157 2 48 1 49
-30 56 -62 12 -208 17 -281 8z m147 -18 c21 -14 -30 -25 -66 -16 -26 7 -26 8
-8 15 27 12 57 12 74 1z m5 -183 c3 -13 1 -27 -4 -32 -5 -5 -5 -16 1 -28 9
-16 6 -18 -29 -18 -35 0 -40 3 -45 27 -3 16 -1 31 4 34 6 3 9 10 8 15 -3 20 2
24 30 24 21 0 30 -6 35 -22z m-19 -108 c-3 -5 -15 -10 -26 -10 -10 0 -19 5
-19 10 0 6 12 10 26 10 14 0 23 -4 19 -10z m90 -210 c3 -5 2 -10 -4 -10 -5 0
-13 5 -16 10 -3 6 -2 10 4 10 5 0 13 -4 16 -10z m-210 -100 c-10 -11 -20 -18
-23 -16 -5 6 21 35 32 36 5 0 1 -9 -9 -20z"/>
<path d="M6465 3445 c-41 -18 -7 -19 36 0 23 10 28 14 14 14 -11 0 -33 -6 -50
-14z"/>
<path d="M6900 3457 c0 -3 21 -12 48 -21 40 -13 44 -13 28 -1 -11 8 -25 15
-32 15 -7 0 -19 3 -28 6 -9 3 -16 4 -16 1z"/>
<path d="M5569 3433 c-1 -5 -2 -22 -4 -40 -2 -29 -1 -31 13 -17 12 13 13 17 3
24 -9 5 -10 10 -2 14 6 4 11 11 11 17 0 11 -19 12 -21 2z"/>
<path d="M6708 3431 c-145 -9 -132 -23 18 -20 106 3 128 6 118 16 -7 7 -19 12
-26 11 -7 -1 -57 -4 -110 -7z"/>
<path d="M6875 3410 c-4 -6 6 -7 27 -3 44 8 48 13 10 13 -17 0 -34 -4 -37 -10z"/>
<path d="M5600 3390 c0 -5 5 -10 10 -10 6 0 10 5 10 10 0 6 -4 10 -10 10 -5 0
-10 -4 -10 -10z"/>
<path d="M6460 3373 c0 -16 24 -106 45 -170 5 -16 15 -23 33 -23 24 0 25 1 7
14 -12 8 -26 46 -40 101 -12 49 -27 91 -33 93 -7 2 -12 -5 -12 -15z"/>
<path d="M5600 3350 c0 -5 5 -10 10 -10 6 0 10 5 10 10 0 6 -4 10 -10 10 -5 0
-10 -4 -10 -10z"/>
<path d="M6971 3324 c0 -11 3 -14 6 -6 3 7 2 16 -1 19 -3 4 -6 -2 -5 -13z"/>
<path d="M4392 3310 c0 -14 2 -19 5 -12 2 6 2 18 0 25 -3 6 -5 1 -5 -13z"/>
<path d="M6930 3304 c-6 -14 -10 -37 -10 -52 0 -21 -2 -24 -10 -12 -8 13 -10
13 -10 -1 0 -9 -7 -22 -15 -29 -13 -11 -13 -15 -3 -21 22 -15 34 -10 48 19 13
29 26 122 16 122 -4 0 -11 -12 -16 -26z m-27 -99 c-3 -9 -8 -14 -10 -11 -3 3
-2 9 2 15 9 16 15 13 8 -4z"/>
<path d="M926 3305 c-3 -8 1 -30 10 -50 14 -35 14 -35 -13 -47 -16 -7 -31 -17
-34 -21 -4 -5 -10 -4 -13 2 -4 6 -2 11 5 11 8 0 8 4 1 13 -18 22 -31 85 -19
91 12 6 -3 4 -56 -8 -22 -5 -27 -11 -22 -24 4 -9 8 -28 10 -43 1 -14 20 -53
44 -87 23 -34 38 -62 34 -62 -13 1 -108 138 -107 154 2 14 -7 16 -99 17 -9 0
-24 -7 -33 -15 -8 -9 -24 -16 -35 -16 -11 0 -29 -5 -42 -12 -12 -6 -29 -14
-37 -18 -33 -15 -19 -36 49 -72 74 -41 91 -45 91 -25 0 8 7 14 15 14 8 0 15
-2 15 -4 0 -9 -29 -33 -40 -33 -17 0 -3 -17 49 -58 26 -21 46 -42 44 -47 -1
-6 13 -27 33 -49 19 -21 33 -43 31 -50 -2 -6 3 -24 11 -41 8 -16 25 -59 37
-94 12 -36 27 -67 33 -69 7 -2 10 2 6 12 -7 19 0 20 26 6 16 -8 18 -8 14 5 -4
8 -12 15 -20 15 -19 0 -18 35 2 55 15 14 14 18 -3 43 l-18 27 -3 -42 c-2 -24
-7 -43 -11 -43 -4 0 -22 39 -41 88 -18 48 -41 104 -50 125 -10 20 -15 37 -10
37 4 0 31 -21 59 -46 l51 -46 0 34 c-1 18 -9 57 -19 86 -17 50 -15 66 7 40 5
-7 16 -32 22 -55 7 -23 17 -40 21 -37 5 3 6 -2 3 -10 -3 -9 0 -55 7 -103 19
-126 24 -56 9 132 -15 186 -14 178 -24 193 -5 9 2 12 26 11 18 -1 25 -3 15 -6
-12 -3 -16 -11 -12 -26 2 -12 9 -114 15 -227 8 -149 8 -213 0 -234 -6 -16 -9
-30 -8 -31 2 -1 18 -7 36 -15 42 -16 52 -33 15 -25 l-28 6 24 -21 c13 -11 31
-18 38 -16 8 3 11 1 8 -4 -4 -6 6 -10 21 -10 26 0 26 1 10 13 -25 18 -17 37
22 51 l32 11 4 210 c5 224 13 305 29 305 6 0 7 -25 2 -67 -14 -130 -21 -288
-14 -308 6 -15 8 -11 8 17 1 20 6 60 12 88 9 40 8 54 -3 67 -8 10 -8 14 -1 10
7 -5 14 1 18 15 21 80 34 110 72 171 24 37 38 67 33 67 -6 0 -10 5 -10 10 0
13 27 13 35 0 3 -5 -13 -38 -37 -72 -44 -65 -72 -147 -83 -248 l-7 -55 35 40
c19 22 40 40 47 40 6 0 20 11 32 25 21 26 20 19 -6 -42 -15 -34 -15 -38 -1
-38 9 0 13 4 10 10 -3 5 5 21 19 34 14 13 26 29 26 36 0 7 20 31 46 53 l45 40
-22 23 c-25 26 -21 44 4 19 9 -8 18 -15 22 -15 17 0 135 84 135 96 0 8 -4 14
-9 14 -10 0 -77 31 -131 60 -39 21 -54 25 -46 11 6 -10 -46 -18 -82 -13 -17 3
-22 8 -17 19 7 20 -11 33 -45 33 -23 0 -26 -5 -28 -37 -2 -21 -7 -42 -12 -47
-5 -5 -6 -15 -3 -22 3 -8 0 -14 -7 -14 -6 0 -8 5 -5 10 3 6 -4 10 -18 10 -33
0 -38 9 -22 40 8 15 13 37 12 49 -1 20 -6 21 -118 21 -94 0 -118 -3 -123 -15z
m-231 -101 c1 -13 -3 -24 -7 -24 -4 0 -8 2 -8 4 0 2 -3 12 -7 22 -5 13 -3 15
7 9 10 -6 12 -4 6 11 -4 10 -3 15 1 10 4 -4 8 -19 8 -32z m713 1 c-6 -14 -13
-24 -14 -22 -6 6 9 47 17 47 5 0 3 -11 -3 -25z m-268 -9 c8 -2 -11 -4 -43 -5
-32 0 -56 3 -53 7 4 7 57 6 96 -2z m-379 -53 c13 -16 12 -17 -3 -4 -17 13 -22
21 -14 21 2 0 10 -8 17 -17z m328 -12 c16 -22 21 -44 21 -93 0 -93 -22 -328
-31 -328 -20 0 -11 173 12 213 6 11 7 22 3 25 -4 4 -9 1 -11 -5 -9 -26 -23
-12 -23 24 l0 36 -25 -23 c-27 -25 -35 -51 -10 -30 8 7 15 8 15 2 0 -5 -7 -16
-16 -23 -14 -11 -16 -28 -11 -95 3 -52 11 -91 21 -105 9 -13 16 -37 15 -54 l0
-30 -17 38 c-10 21 -21 35 -25 31 -4 -4 -7 24 -7 62 0 38 -3 123 -6 189 -5
110 -4 118 10 95 l15 -25 1 32 c0 31 28 93 42 93 4 0 16 -13 27 -29z m-305
-26 c3 -8 1 -15 -4 -15 -6 0 -10 7 -10 15 0 8 2 15 4 15 2 0 6 -7 10 -15z
m566 5 c0 -3 -13 -21 -29 -40 -30 -36 -55 -35 -33 0 7 11 12 26 12 34 0 9 9
13 25 12 14 0 25 -3 25 -6z m60 -35 c8 -9 9 -15 2 -15 -6 0 -13 4 -17 10 -3 5
-13 7 -23 4 -14 -5 -15 -4 -2 5 20 14 25 14 40 -4z m-664 -8 c5 -4 0 -5 -10
-1 -11 4 -17 3 -14 -2 3 -5 -7 -9 -23 -10 -21 -1 -26 2 -19 10 10 13 54 15 66
3z m276 -392 c3 -13 1 -22 -3 -19 -9 5 -13 44 -5 44 2 0 6 -11 8 -25z"/>
<path d="M1055 3078 c-4 -10 -4 -26 0 -35 8 -17 8 -17 12 0 3 9 3 25 0 35 -4
16 -4 16 -12 0z"/>
<path d="M1086 3011 c-4 -7 -5 -15 -2 -18 9 -9 19 4 14 18 -4 11 -6 11 -12 0z"/>
<path d="M7778 3312 c-47 -2 -58 -6 -58 -20 0 -13 -2 -14 -9 -4 -5 9 -24 12
-52 10 l-44 -3 2 -140 c2 -139 22 -285 43 -311 8 -8 28 -12 61 -9 27 1 52 -1
55 -6 8 -14 24 -10 24 6 0 9 9 15 25 15 16 0 25 -6 25 -15 0 -18 70 -21 87 -4
6 6 33 10 62 8 58 -5 62 0 81 105 10 62 12 101 3 79 -2 -7 -20 -13 -39 -13
-27 0 -34 4 -34 20 0 11 3 19 8 19 4 -1 23 -1 42 0 l35 1 3 53 c2 34 -1 47 -7
38 -12 -18 -81 -6 -81 14 0 11 12 15 45 15 l46 0 -3 63 -3 62 -42 3 c-29 2
-43 -1 -43 -9 0 -9 -4 -8 -12 3 -14 17 -117 27 -220 20z m125 -19 c-7 -2 -19
-2 -25 0 -7 3 -2 5 12 5 14 0 19 -2 13 -5z m-218 -132 c3 -5 1 -12 -4 -16 -14
-8 -62 5 -55 16 7 12 51 12 59 0z m295 1 c0 -5 -19 -13 -42 -19 -24 -6 -50
-12 -58 -14 -9 -3 -16 4 -18 19 -3 21 0 22 57 22 34 0 61 -4 61 -8z m-290
-137 c0 -18 -8 -18 -40 0 l-25 14 33 1 c22 0 32 -5 32 -15z m289 11 c-11 -9
-119 -15 -119 -6 0 6 27 10 62 10 34 0 59 -2 57 -4z m-21 -92 c6 -2 12 -15 12
-30 0 -23 -2 -25 -17 -13 -13 11 -17 11 -20 2 -3 -7 -20 -13 -39 -13 -32 0
-34 2 -34 35 l0 35 43 -6 c23 -3 48 -7 55 -10z m112 5 c0 -5 -16 -9 -35 -9
-46 0 -46 14 0 17 19 1 35 -3 35 -8z m-340 -29 c0 -5 -4 -10 -10 -10 -5 0 -10
5 -10 10 0 6 5 10 10 10 6 0 10 -4 10 -10z m70 0 c-21 -7 -22 -8 -5 -9 17 -1
17 -3 5 -11 -26 -17 -49 -12 -47 10 1 16 8 20 37 19 32 -1 33 -2 10 -9z m200
0 c0 -5 -4 -10 -10 -10 -5 0 -10 5 -10 10 0 6 5 10 10 10 6 0 10 -4 10 -10z"/>
<path d="M5510 3276 c0 -2 9 -13 19 -25 11 -13 22 -28 24 -34 2 -7 8 -8 13 -4
5 4 2 12 -6 18 -13 8 -13 10 0 18 8 6 11 13 7 18 -5 4 -12 1 -17 -7 -6 -8 -10
-10 -10 -4 0 7 -7 14 -15 18 -8 3 -15 4 -15 2z"/>
<path d="M5515 3201 c0 -22 2 -38 4 -35 2 2 10 -1 18 -7 8 -7 13 -8 13 -1 0 5
-7 15 -15 22 -8 7 -15 18 -15 24 0 6 4 4 10 -4 5 -8 12 -11 16 -7 5 4 -1 16
-12 27 -19 20 -19 20 -19 -19z"/>
<path d="M5566 3204 c-17 -25 -17 -27 -1 -42 16 -16 17 -16 11 4 -4 14 -1 28
9 37 16 17 19 27 8 27 -5 0 -16 -12 -27 -26z"/>
<path d="M5580 3180 c0 -5 5 -10 10 -10 6 0 10 5 10 10 0 6 -4 10 -10 10 -5 0
-10 -4 -10 -10z"/>
<path d="M6645 3180 c-16 -7 -12 -9 20 -10 22 -1 31 -4 20 -7 -46 -10 -47 -12
-26 -40 17 -24 21 -45 22 -148 1 -96 4 -124 18 -139 9 -11 10 -16 4 -12 -14 8
-15 5 -16 -65 l-1 -47 -50 -10 -51 -9 58 -2 c54 -1 58 -3 52 -21 -5 -17 -2
-20 20 -20 22 0 25 3 20 20 -6 17 -2 20 30 20 22 0 34 4 30 10 -3 6 -14 10
-24 10 -21 0 -19 -17 -20 225 -1 144 1 163 19 187 l19 27 -27 9 -27 10 30 2
c25 2 22 4 -15 11 -58 10 -80 10 -105 -1z"/>
<path d="M6820 3170 c14 -4 36 -8 50 -8 l25 0 -25 8 c-14 4 -36 8 -50 8 l-25
0 25 -8z"/>
<path d="M6506 3161 c-3 -5 1 -22 9 -37 13 -24 15 -69 14 -239 -1 -146 2 -210
10 -213 13 -4 12 -25 11 243 -1 182 -4 221 -16 228 -8 5 -12 12 -9 18 4 5 2 9
-4 9 -5 0 -12 -4 -15 -9z"/>
<path d="M6896 3138 c-3 -13 -6 -114 -6 -225 0 -136 -3 -203 -11 -203 -5 0 -7
-4 -4 -10 3 -5 13 -10 20 -10 12 0 15 33 13 208 -1 144 2 214 10 229 15 28 15
33 -2 33 -7 0 -16 -10 -20 -22z"/>
<path d="M3305 3119 c-46 -4 -35 -6 50 -6 61 0 103 1 95 3 -35 7 -89 9 -145 3z"/>
<path d="M5515 3060 c-3 -5 1 -10 10 -10 9 0 13 5 10 10 -3 6 -8 10 -10 10 -2
0 -7 -4 -10 -10z"/>
<path d="M5550 3062 c0 -4 9 -8 20 -8 11 0 20 4 20 8 0 4 -9 8 -20 8 -11 0
-20 -4 -20 -8z"/>
<path d="M2302 3025 c0 -16 2 -22 5 -12 2 9 2 23 0 30 -3 6 -5 -1 -5 -18z"/>
<path d="M1190 2797 c-10 -21 -11 -30 -2 -39 17 -17 24 -5 20 34 l-4 33 -14
-28z"/>
<path d="M7679 2788 c-2 -42 3 -73 12 -76 5 -2 9 -73 9 -158 0 -130 2 -154 15
-154 13 0 15 24 15 160 0 100 -4 160 -10 160 -5 0 -10 20 -10 45 0 33 -4 45
-15 45 -9 0 -15 -10 -16 -22z"/>
<path d="M7998 2765 c4 -41 2 -45 -19 -46 -13 0 -18 -3 -11 -6 9 -3 12 -45 12
-159 0 -147 1 -154 20 -154 11 0 20 6 21 13 0 6 0 71 -1 144 -1 106 2 137 15
157 9 14 15 39 13 58 -2 27 -8 34 -28 36 -24 3 -25 1 -22 -43z"/>
<path d="M926 2741 c-14 -16 -15 -19 -2 -24 9 -4 16 2 20 16 7 29 3 31 -18 8z"/>
<path d="M7850 2631 c0 -47 4 -81 10 -81 6 0 10 31 10 74 0 41 -4 78 -10 81
-6 4 -10 -23 -10 -74z"/>
<path d="M6824 2686 c-3 -8 2 -29 12 -48 37 -71 103 -232 98 -237 -8 -8 -431
-8 -438 0 -6 6 0 24 82 229 5 13 3 13 -11 1 -15 -12 -17 -12 -12 1 4 10 -1 17
-14 21 -19 5 -20 4 -6 -16 19 -27 19 -38 -1 -63 -14 -17 -15 -17 -10 -1 3 10
2 16 -3 13 -5 -3 -9 -21 -8 -40 1 -39 -31 -118 -45 -110 -5 4 -5 10 0 17 16
21 31 77 25 93 -4 11 -12 4 -29 -26 -13 -23 -22 -46 -19 -51 9 -13 -18 -49
-36 -49 -9 0 -24 -10 -35 -21 -10 -12 -49 -46 -86 -76 -37 -29 -67 -57 -66
-61 0 -4 -7 -25 -17 -47 -10 -23 -14 -44 -9 -51 5 -6 24 -30 42 -54 43 -58 62
-126 62 -229 0 -77 -45 -893 -69 -1256 -6 -77 -8 -141 -6 -143 14 -15 275 -23
585 -19 351 5 488 15 517 38 20 17 16 39 -8 39 -26 0 -15 18 18 31 16 6 30 6
37 0 6 -5 34 -14 61 -20 28 -6 82 -17 120 -25 116 -25 707 -17 779 10 23 9 20
24 -6 25 -22 0 -22 1 -3 9 24 10 148 46 188 55 16 3 39 16 52 29 17 17 26 21
34 13 8 -8 27 6 69 51 46 49 62 77 84 139 46 134 43 274 -8 389 -13 30 -26 54
-28 54 -5 0 -1 -52 13 -154 16 -114 -6 -203 -64 -268 -19 -21 -35 -42 -35 -48
0 -14 -58 -42 -65 -31 -3 6 -1 28 4 50 5 24 5 41 0 41 -5 0 -9 -4 -9 -8 0 -5
-7 -17 -15 -28 -15 -19 -15 -19 -12 1 1 11 5 25 8 30 4 6 9 22 13 37 3 16 13
28 22 28 8 0 12 -4 9 -10 -8 -13 1 -13 24 0 10 5 29 33 41 62 13 29 25 48 27
41 2 -7 0 -21 -6 -32 -6 -11 -11 -30 -10 -43 l0 -23 16 23 c9 13 17 35 18 50
2 15 4 32 5 37 1 6 1 28 0 50 l-2 40 -13 -45 -13 -45 -1 50 c-1 28 -5 64 -10
82 -6 21 -6 33 1 35 7 3 4 16 -6 37 -10 18 -15 35 -12 38 3 3 11 -6 17 -21 7
-14 16 -26 20 -26 4 0 10 -12 12 -27 3 -24 4 -23 6 7 0 20 -3 40 -7 45 -13 16
-34 86 -28 92 3 3 -2 12 -12 20 -12 10 -13 16 -5 19 8 4 -1 29 -27 79 -37 70
-47 101 -100 295 -13 47 -37 110 -54 140 -32 58 -136 167 -220 230 -28 20 -93
77 -143 124 l-93 88 15 -43 c8 -23 25 -58 37 -78 25 -41 114 -130 173 -173 91
-66 134 -156 154 -323 14 -111 45 -226 83 -304 17 -36 31 -72 29 -80 -1 -8 2
-10 10 -5 7 4 10 3 6 -3 -7 -12 34 -138 51 -155 14 -14 16 -64 2 -73 -5 -3 -9
-28 -9 -54 2 -49 -27 -161 -41 -161 -4 0 2 26 13 58 15 45 18 72 13 127 -14
161 -21 190 -73 300 -58 123 -88 227 -103 359 -18 165 -54 234 -169 322 -35
27 -76 59 -91 71 -30 25 -105 144 -115 184 -3 13 -15 35 -25 49 l-20 25 5 -45
c4 -44 30 -120 41 -120 3 0 2 6 -2 13 -4 6 4 2 17 -10 12 -12 20 -26 15 -30
-4 -4 -11 -1 -16 7 -8 13 -10 12 -10 -2 0 -20 -15 -24 -25 -8 -10 16 -235 13
-235 -2 0 -10 -2 -10 -8 0 -12 19 -32 8 -103 -58 -61 -57 -97 -79 -68 -42 13
15 12 16 -3 3 -10 -7 -16 -17 -13 -20 3 -6 -81 -110 -127 -156 -32 -32 29 58
67 99 25 27 45 52 45 55 0 6 -114 -111 -142 -146 -15 -19 -15 -29 -2 -104 23
-137 68 -265 130 -369 121 -205 154 -293 154 -420 0 -134 -49 -240 -162 -346
-46 -44 -123 -94 -143 -94 -3 0 7 17 22 38 l28 37 -47 -43 c-26 -23 -50 -42
-53 -42 -4 0 26 35 65 78 73 80 84 96 121 172 17 36 22 64 22 145 1 90 -3 111
-37 212 -21 62 -42 110 -47 107 -5 -3 -6 1 -4 8 3 8 -15 60 -40 117 -69 156
-91 245 -105 421 -14 178 -36 277 -85 372 -19 37 -30 68 -25 68 12 0 91 -77
112 -110 10 -14 17 -20 17 -14 1 20 -79 102 -152 155 -40 29 -98 78 -129 110
-58 57 -73 64 -41 20 9 -14 11 -21 5 -17 -7 4 -26 35 -43 68 -17 33 -32 58
-35 56 -7 -8 37 -101 59 -125 11 -13 16 -23 11 -23 -21 0 -42 27 -59 75 -10
28 -22 54 -27 60 -4 5 -8 18 -8 30 0 11 -7 31 -16 44 -11 16 -13 26 -6 33 8 8
7 15 -3 24 -17 18 -34 18 -41 0z m-433 -303 c-13 -23 -125 -143 -115 -123 8
16 115 140 121 140 2 0 -1 -8 -6 -17z m796 -148 c18 -36 21 -38 -52 50 -58 70
-58 70 -11 25 26 -25 55 -58 63 -75z m691 -42 c-15 -2 -42 -2 -60 0 -18 2 -6
4 27 4 33 0 48 -2 33 -4z m147 -13 c-3 -5 -16 -10 -28 -9 -20 1 -20 2 3 9 14
4 26 8 28 9 2 1 0 -3 -3 -9z m-302 -7 c-7 -2 -19 -2 -25 0 -7 3 -2 5 12 5 14
0 19 -2 13 -5z m195 -10 c-32 -2 -86 -2 -120 0 -35 2 -9 3 57 3 66 0 94 -1 63
-3z m261 -87 c14 -14 22 -28 20 -31 -3 -2 -23 14 -45 36 -21 23 -30 37 -19 31
11 -6 31 -22 44 -36z m-892 -363 c-3 -10 -5 -2 -5 17 0 19 2 27 5 18 2 -10 2
-26 0 -35z m1146 -39 c-4 -10 0 -12 11 -8 11 4 15 13 11 28 -9 32 36 -54 46
-89 l9 -30 -26 33 c-19 23 -29 30 -34 21 -9 -14 -23 9 -34 55 -6 26 -5 28 8
17 8 -7 12 -19 9 -27z m-1136 -26 c-3 -7 -5 -2 -5 12 0 14 2 19 5 13 2 -7 2
-19 0 -25z m10 -40 c-3 -8 -6 -5 -6 6 -1 11 2 17 5 13 3 -3 4 -12 1 -19z m51
-118 c46 -104 52 -120 46 -120 -8 0 -82 161 -88 195 -6 29 -6 29 5 5 7 -14 23
-50 37 -80z m-758 -105 c0 -14 -4 -25 -9 -25 -4 0 -6 11 -3 25 2 14 6 25 8 25
2 0 4 -11 4 -25z m58 -20 c-3 -3 -9 2 -12 12 -6 14 -5 15 5 6 7 -7 10 -15 7
-18z m70 -13 c4 -44 -15 -41 -20 3 -2 22 0 34 6 32 6 -2 12 -18 14 -35z m132
17 c0 -14 -17 -10 -23 5 -4 10 -1 13 9 9 7 -3 14 -9 14 -14z m-219 -39 c6 0 7
-5 3 -11 -12 -21 -37 16 -28 42 9 24 9 24 12 -3 2 -16 8 -28 13 -28z m49 20
c0 -16 -4 -30 -9 -30 -5 0 -8 8 -6 18 2 9 4 23 4 30 2 26 11 11 11 -18z m67
-17 c-3 -10 -5 -2 -5 17 0 19 2 27 5 18 2 -10 2 -26 0 -35z m154 10 c18 -21
28 -32 20 -26 -11 9 -18 10 -28 1 -10 -8 -12 -7 -8 4 4 9 -1 18 -9 21 -9 4
-16 13 -16 22 0 21 2 20 41 -22z m49 -10 c0 -9 -6 -8 -20 4 -11 10 -20 23 -20
30 0 9 6 8 20 -4 11 -10 20 -23 20 -30z m30 26 c6 -11 9 -25 7 -32 -2 -7 -11
3 -21 21 -9 17 -12 32 -7 32 6 0 15 -9 21 -21z m-166 -4 c-4 -8 1 -17 10 -21
9 -3 13 -10 10 -16 -9 -13 -34 11 -34 33 0 11 4 19 10 19 5 0 7 -7 4 -15z
m166 -49 c0 -3 -4 -8 -10 -11 -5 -3 -10 -1 -10 4 0 6 5 11 10 11 6 0 10 -2 10
-4z m-94 -130 c0 -19 -4 -32 -8 -30 -14 9 -8 64 7 64 0 0 1 -15 1 -34z m136 4
c3 -17 1 -33 -4 -36 -4 -3 -8 11 -8 30 0 44 6 47 12 6z m128 21 c0 -4 -11 -6
-25 -3 -14 2 -25 0 -25 -6 0 -6 12 -12 27 -14 14 -2 28 -8 30 -15 6 -17 -42
-27 -64 -14 -15 10 -14 10 8 5 15 -3 30 -1 33 5 4 6 -1 11 -11 11 -26 0 -47
16 -39 29 8 13 66 15 66 2z m-342 -29 c13 -20 13 -22 -2 -16 -9 3 -16 12 -16
19 0 7 -5 16 -10 18 -6 3 -5 4 1 3 7 -1 19 -12 27 -24z m144 16 c8 -20 -2 -38
-20 -38 -14 0 -14 2 -3 9 8 5 11 16 8 25 -4 9 -2 16 2 16 5 0 11 -6 13 -12z
m-442 -12 c0 -2 -8 -10 -17 -17 -16 -13 -17 -12 -4 4 13 16 21 21 21 13z m44
-12 c3 -8 2 -12 -4 -9 -6 3 -10 10 -10 16 0 14 7 11 14 -7z m197 -7 c-10 -9
-11 -8 -5 6 3 10 9 15 12 12 3 -3 0 -11 -7 -18z m194 -117 c3 -5 1 -10 -4 -10
-6 0 -11 5 -11 10 0 6 2 10 4 10 3 0 8 -4 11 -10z m1546 -114 c-7 -8 -9 -21
-5 -27 4 -7 3 -9 -4 -5 -6 3 -13 -3 -17 -14 -10 -30 -106 -127 -137 -139 -20
-8 -38 -6 -69 4 -49 18 -95 19 -105 4 -4 -8 -9 -8 -17 0 -7 7 -58 11 -130 11
-76 0 -116 4 -112 10 3 6 31 10 61 10 34 0 53 4 49 10 -4 6 6 10 24 10 16 0
32 6 35 13 5 10 7 10 12 0 3 -7 12 -13 20 -13 8 0 14 -5 14 -12 0 -16 171 -3
230 18 49 17 99 60 132 112 11 18 23 31 26 28 2 -3 -1 -12 -7 -20z m13 -54 c2
-4 -4 -8 -15 -8 -10 0 -19 4 -19 8 0 4 6 8 14 8 8 0 17 -4 20 -8z m-1112 -114
c-7 -7 -12 -20 -12 -29 0 -37 -42 -56 -290 -130 -95 -28 -238 -35 -398 -19
-123 12 -236 36 -182 39 24 2 24 2 6 16 -18 14 -11 15 75 16 l94 2 -70 8 c-38
5 -73 10 -77 12 -5 1 85 2 200 3 221 0 366 18 450 55 24 10 70 19 103 20 32 1
59 6 59 10 0 5 12 9 27 9 21 0 24 -3 15 -12z m833 -29 c38 -21 86 -22 140 -3
18 6 17 4 -2 -10 -38 -28 -104 -31 -151 -7 -23 12 -42 26 -42 31 0 15 11 12
55 -11z m-950 -149 c-10 -11 -23 -20 -29 -20 -6 0 0 9 14 20 32 25 38 25 15 0z
m900 -20 c55 -6 51 -7 -45 -8 -58 -1 -112 3 -120 8 -18 12 73 12 165 0z m-979
-29 c-8 -12 -94 -22 -124 -13 -24 6 -20 8 23 13 80 9 107 10 101 0z m-177 -15
c-2 -2 -62 -6 -134 -9 -71 -2 -112 -1 -90 3 41 7 232 13 224 6z"/>
<path d="M8323 778 c-18 -5 -33 -11 -33 -13 0 -9 45 -5 60 5 22 14 9 18 -27 8z"/>
<path d="M1118 2583 c6 -2 18 -2 25 0 6 3 1 5 -13 5 -14 0 -19 -2 -12 -5z"/>
<path d="M7855 2530 c-3 -5 -1 -10 4 -10 6 0 11 5 11 10 0 6 -2 10 -4 10 -3 0
-8 -4 -11 -10z"/>
<path d="M2072 2510 c-6 -11 -8 -21 -3 -25 5 -3 13 4 16 16 9 28 2 33 -13 9z"/>
<path d="M7850 2490 c0 -11 5 -20 10 -20 6 0 10 9 10 20 0 11 -4 20 -10 20 -5
0 -10 -9 -10 -20z"/>
<path d="M1034 2469 c-3 -6 -1 -15 5 -20 6 -5 9 -6 6 -3 -3 4 0 13 6 21 8 9 8
13 1 13 -6 0 -14 -5 -18 -11z"/>
<path d="M7850 2425 c0 -14 5 -25 10 -25 6 0 10 11 10 25 0 14 -4 25 -10 25
-5 0 -10 -11 -10 -25z"/>
<path d="M1050 2400 c0 -5 5 -10 10 -10 6 0 10 5 10 10 0 6 -4 10 -10 10 -5 0
-10 -4 -10 -10z"/>
<path d="M1035 2325 c0 -25 3 -45 7 -45 5 0 8 20 8 45 0 25 -3 45 -7 45 -5 0
-8 -20 -8 -45z"/>
<path d="M7741 2312 c-20 -68 -22 -84 -12 -77 10 6 36 114 29 120 -2 3 -10
-17 -17 -43z"/>
<path d="M7589 2251 c-58 -53 -136 -121 -172 -151 -65 -54 -66 -56 -61 -95 10
-63 19 -73 37 -39 8 16 41 54 73 84 81 77 167 165 182 187 17 25 54 104 50
108 -1 1 -51 -41 -109 -94z"/>
<path d="M7921 2316 c-1 -26 21 -86 32 -86 4 0 5 5 1 11 -4 7 -13 30 -20 53
-7 23 -13 32 -13 22z"/>
<path d="M7766 2264 c-4 -14 -5 -28 -3 -31 3 -2 8 8 11 23 4 14 5 28 3 31 -3
2 -8 -8 -11 -23z"/>
<path d="M7605 2170 c-10 -11 -16 -22 -13 -25 3 -3 13 6 22 20 20 30 16 32 -9
5z"/>
<path d="M7310 2155 c0 -5 5 -17 10 -25 5 -8 10 -10 10 -5 0 6 -5 17 -10 25
-5 8 -10 11 -10 5z"/>
<path d="M300 1330 c-6 -11 -8 -20 -6 -20 3 0 10 9 16 20 6 11 8 20 6 20 -3 0
-10 -9 -16 -20z"/>
<path d="M8640 915 c-19 -23 -8 -26 19 -4 16 13 18 19 8 19 -8 0 -20 -7 -27
-15z"/>
</g>
</svg>
